<?xml version="1.0" encoding="utf-8" standalone="no"?>
<!DOCTYPE svg PUBLIC "-//W3C//DTD SVG 1.1//EN"
  "http://www.w3.org/Graphics/SVG/1.1/DTD/svg11.dtd">
<svg xmlns:xlink="http://www.w3.org/1999/xlink" width="381.665373pt" height="554.4pt" viewBox="0 0 381.665373 554.4" xmlns="http://www.w3.org/2000/svg" version="1.1">
 <metadata>
  <rdf:RDF xmlns:dc="http://purl.org/dc/elements/1.1/" xmlns:cc="http://creativecommons.org/ns#" xmlns:rdf="http://www.w3.org/1999/02/22-rdf-syntax-ns#">
   <cc:Work>
    <dc:type rdf:resource="http://purl.org/dc/dcmitype/StillImage"/>
    <dc:date>2026-01-24T10:00:36.009360</dc:date>
    <dc:format>image/svg+xml</dc:format>
    <dc:creator>
     <cc:Agent>
      <dc:title>Matplotlib v3.10.8, https://matplotlib.org/</dc:title>
     </cc:Agent>
    </dc:creator>
   </cc:Work>
  </rdf:RDF>
 </metadata>
 <defs>
  <style type="text/css">*{stroke-linejoin: round; stroke-linecap: butt}</style>
 </defs>
 <g id="figure_1">
  <g id="patch_1">
   <path d="M 0 554.4 
L 381.665373 554.4 
L 381.665373 0 
L 0 0 
L 0 554.4 
z
" style="fill: none"/>
  </g>
  <g id="axes_1">
   <g id="PatchCollection_1">
    <path d="M 17.348426 487.382071 
L 17.404583 485.148826 
L 17.696419 477.404115 
L 19.379862 433.513194 
L 37.557893 30.628536 
L 37.820305 29.622983 
L 38.059317 28.904929 
L 38.458217 28.180561 
L 39.260322 27.000711 
L 39.985584 26.360522 
L 40.744898 25.907112 
L 41.503539 25.633437 
L 42.206343 25.421769 
L 42.90881 25.299968 
L 43.903119 25.2 
L 44.71625 25.223787 
L 45.66637 25.311194 
L 46.617862 25.508323 
L 47.374771 25.751814 
L 48.207742 26.04528 
L 49.082081 26.428771 
L 49.838313 26.797993 
L 50.884609 27.539468 
L 74.487133 50.775527 
L 74.809723 50.979273 
L 75.185397 51.157211 
L 75.553361 51.269196 
L 76.032663 51.347033 
L 76.470572 51.341759 
L 77.003992 51.268103 
L 111.695174 40.840956 
L 112.808396 40.610436 
L 114.360192 40.280977 
L 115.996005 40.018882 
L 117.463218 39.77292 
L 118.660208 39.676814 
L 120.925632 39.504611 
L 122.829635 39.501647 
L 124.82471 39.519168 
L 126.697804 39.657106 
L 128.935074 39.907204 
L 362.384261 84.386075 
L 363.346711 84.728874 
L 363.596437 85.038012 
L 363.830866 85.493865 
L 364.005456 86.169652 
L 364.120477 86.99199 
L 364.19085 87.916903 
L 364.27625 88.768486 
L 364.316947 89.73732 
L 364.298672 90.69126 
L 364.251857 91.380909 
L 364.204826 92.129264 
L 364.127307 93.141695 
L 363.937862 94.539543 
L 363.667612 95.685082 
L 363.379334 96.90993 
L 363.099793 98.170088 
L 362.749931 99.262417 
L 361.94908 101.679299 
L 361.21486 103.401244 
L 360.164274 105.313957 
L 359.50961 106.5265 
L 358.874793 107.699924 
L 358.101878 108.921829 
L 357.502341 109.84862 
L 356.809606 110.859701 
L 356.030377 111.970399 
L 355.078794 113.109015 
L 354.185311 114.062249 
L 352.801893 115.527633 
L 351.836797 116.437773 
L 350.82788 117.23037 
L 350.096721 117.761537 
L 349.406073 118.292854 
L 348.482006 118.954257 
L 347.578454 119.545225 
L 346.603972 120.146005 
L 345.28422 120.997333 
L 336.994244 126.253184 
L 328.671969 132.033528 
L 319.125666 139.182665 
L 308.853505 147.934774 
L 291.734572 165.203733 
L 289.420467 167.799511 
L 287.908097 169.678402 
L 286.290759 171.866685 
L 284.776283 174.313499 
L 283.182603 177.121429 
L 276.030759 194.496788 
L 275.075712 196.102897 
L 274.213073 197.402742 
L 273.146987 198.887982 
L 272.190997 200.125432 
L 271.360929 201.0531 
L 270.312163 202.073032 
L 269.232721 202.95324 
L 267.833995 204.061691 
L 266.612908 204.892396 
L 265.449033 205.632815 
L 264.364323 206.220862 
L 262.834253 206.888979 
L 261.025039 207.608906 
L 259.42909 208.13145 
L 258.019891 208.443302 
L 256.424579 208.794099 
L 254.826048 209.096389 
L 253.077733 209.249382 
L 250.720652 209.256587 
L 248.95713 209.186255 
L 228.202168 205.494033 
L 227.028102 205.327727 
L 225.690868 205.253355 
L 224.563066 205.156626 
L 223.341792 205.175225 
L 222.597534 205.149325 
L 221.701738 205.215403 
L 220.840661 205.327881 
L 220.083871 205.544853 
L 217.837861 206.070435 
L 216.24401 206.578693 
L 214.378546 207.306304 
L 212.028469 208.420824 
L 210.298415 209.326197 
L 208.788473 210.236278 
L 207.109547 211.573845 
L 205.885503 212.770399 
L 204.540433 214.358942 
L 153.848949 278.178128 
L 153.145464 278.830994 
L 152.430141 279.496799 
L 151.552074 280.111355 
L 150.623467 280.624439 
L 149.684496 280.937804 
L 148.486354 281.27838 
L 147.454057 281.334914 
L 146.08368 281.347057 
L 145.147299 281.265931 
L 144.029399 281.020234 
L 142.920687 280.636553 
L 141.760196 280.183671 
L 140.895289 279.542118 
L 140.108599 278.857726 
L 139.411623 278.238355 
L 138.718073 277.328213 
L 138.110502 276.482706 
L 137.689791 275.623604 
L 137.319029 274.857588 
L 136.320413 272.527271 
L 135.821308 270.903283 
L 135.310448 268.561498 
L 134.992664 267.121308 
L 134.86363 265.367894 
L 134.852845 263.716052 
L 134.857875 262.367662 
L 134.964082 261.15449 
L 135.156656 259.503408 
L 135.400133 257.835662 
L 154.10138 144.678384 
L 154.338157 142.737865 
L 154.404948 141.307722 
L 154.42207 140.011875 
L 154.388566 139.107057 
L 154.401177 136.962673 
L 154.197819 135.100388 
L 153.951234 133.551682 
L 153.327832 131.54142 
L 152.933494 130.138577 
L 152.392886 128.484197 
L 151.746506 126.99675 
L 150.890924 125.215701 
L 149.415484 122.891487 
L 148.27507 121.319637 
L 147.133926 119.943734 
L 145.832121 118.424724 
L 144.38657 117.029872 
L 128.35789 104.558963 
L 127.90133 104.470576 
L 127.706739 104.462936 
L 127.275493 104.544284 
L 126.934346 104.695098 
L 126.599195 105.101719 
L 126.38241 105.453477 
L 126.185523 106.061093 
L 125.99445 106.972907 
L 119.925679 148.02495 
L 117.31201 174.863342 
L 108.197645 387.064904 
L 108.316653 388.706296 
L 108.568807 390.156366 
L 109.18255 391.918455 
L 109.842545 393.198473 
L 110.857038 394.85086 
L 111.791857 396.018098 
L 112.674532 396.788783 
L 114.167111 398.135925 
L 115.672961 398.925379 
L 117.24967 399.562141 
L 119.449524 400.134433 
L 121.004186 400.321526 
L 35.355207 520.261811 
L 35.807127 520.805201 
L 36.375595 521.318655 
L 37.131428 521.835505 
L 37.959942 522.313078 
L 38.61543 522.443535 
L 39.36521 522.498251 
L 40.021273 522.391563 
L 40.915072 522.085868 
L 51.698952 516.555238 
L 66.625994 508.711831 
L 78.647892 502.616923 
L 300.303964 380.04183 
L 303.023015 378.468361 
L 305.945933 376.550872 
L 307.953335 374.965799 
L 309.97696 373.25504 
L 311.611166 371.644325 
L 314.825647 367.992076 
L 316.248474 366.211011 
L 317.258597 364.620663 
L 317.619876 363.342191 
L 317.751466 361.554097 
L 317.674439 358.883194 
L 317.227272 357.713949 
L 316.045588 354.821486 
L 314.635736 352.044716 
L 313.093201 349.530323 
L 311.12548 346.925412 
L 309.215144 344.762337 
L 307.265813 342.780496 
L 305.413761 341.173169 
L 303.258904 339.615098 
L 301.4026 338.32276 
L 299.184583 337.05218 
L 267.578829 321.316226 
L 254.499226 315.11156 
L 251.359047 314.166633 
L 247.54903 313.35147 
L 245.020508 313.000734 
L 240.842044 312.58713 
L 238.94504 312.627037 
L 236.106633 312.783505 
L 233.206234 313.116968 
L 228.877907 313.918071 
L 226.665867 314.412192 
L 224.036455 315.250754 
L 221.488676 316.231433 
L 216.771103 318.299805 
L 213.440834 320.116007 
L 210.532001 322.130549 
L 207.644357 324.384932 
L 204.2547 327.502497 
L 202.137514 329.895449 
L 199.665037 333.07556 
L 197.43061 336.105665 
L 195.837725 339.19496 
L 194.740711 341.759822 
L 193.78767 344.750929 
L 190.359372 354.863104 
L 184.641911 369.44048 
L 182.459771 373.565148 
L 179.956796 377.725338 
L 177.09873 381.789159 
L 173.067454 386.612641 
L 170.801054 388.865407 
L 167.924035 391.624684 
L 164.88986 394.230077 
L 162.372929 396.119842 
L 158.831895 398.428077 
L 155.232885 400.362697 
L 150.993771 402.372015 
L 147.477812 403.661403 
L 144.172187 404.639277 
L 139.755673 405.635525 
L 137.399532 406.09405 
L 135.255975 406.372034 
L 133.379284 406.461036 
L 130.981819 406.538829 
L 126.823731 406.432313 
L 124.923765 406.361175 
L 122.846704 406.042659 
L 120.58508 405.722293 
L 116.716733 404.905354 
L 114.698718 404.206909 
L 112.468787 403.212444 
L 110.53571 402.083256 
L 109.065029 400.97177 
L 107.614957 399.457241 
L 106.350058 397.913922 
L 105.34556 396.351079 
L 104.417863 394.472324 
L 103.90555 392.822476 
L 103.531836 391.517943 
L 103.371717 389.563679 
L 112.151871 187.075611 
L 112.593051 171.990444 
L 113.037477 163.240551 
L 113.478685 159.469247 
L 114.057171 153.413842 
L 120.568541 102.642603 
L 120.645051 101.742084 
L 121.079477 100.478046 
L 121.633044 99.524345 
L 122.277634 98.836373 
L 123.143144 98.324772 
L 123.617023 98.08613 
L 124.208108 97.801771 
L 124.807632 97.571087 
L 125.453127 97.456978 
L 126.383887 97.507134 
L 127.578124 97.674491 
L 128.495741 97.975963 
L 129.490028 98.562498 
L 147.517547 113.198347 
L 149.285922 114.936567 
L 151.668257 117.707021 
L 153.287494 119.994866 
L 154.3649 121.603936 
L 155.505595 123.761198 
L 156.92974 126.634947 
L 157.817651 129.131237 
L 158.431763 131.461627 
L 158.93657 133.581587 
L 159.203017 135.397471 
L 159.32846 137.72478 
L 159.37932 140.609744 
L 159.349563 142.839658 
L 140.565799 266.379924 
L 140.921102 268.168225 
L 141.594262 270.681393 
L 142.282022 272.34426 
L 142.833452 273.493697 
L 143.555616 274.432233 
L 144.311662 274.996791 
L 145.043361 275.288602 
L 146.206472 275.494899 
L 147.000868 275.242333 
L 148.377604 274.567381 
L 149.101861 274.104495 
L 151.34434 271.60764 
L 162.812233 258.327771 
L 198.946803 212.891013 
L 200.373056 211.201582 
L 202.128751 209.422967 
L 205.038339 206.928019 
L 206.918999 205.580379 
L 208.588304 204.607734 
L 210.30273 203.732063 
L 212.752509 202.593487 
L 214.700693 201.874589 
L 216.508863 201.305954 
L 218.738662 200.811835 
L 221.211926 200.385131 
L 223.173769 200.206394 
L 225.451249 200.200322 
L 227.417007 200.315748 
L 229.27621 200.426688 
L 248.116362 203.558784 
L 250.306951 203.7373 
L 251.662701 203.823138 
L 253.866395 203.674293 
L 256.020291 203.359828 
L 257.538498 203.062294 
L 259.128914 202.569204 
L 261.412338 201.494021 
L 264.387023 199.720669 
L 266.239889 198.408498 
L 267.619774 197.231321 
L 268.674907 196.084166 
L 269.757667 194.850792 
L 270.975994 192.975573 
L 278.432096 174.968382 
L 280.51659 171.157342 
L 282.591574 167.900872 
L 285.820384 163.870487 
L 285.806832 163.876566 
L 305.823303 143.273667 
L 309.909313 139.241575 
L 313.708241 135.502664 
L 318.36084 131.217639 
L 322.718756 127.502252 
L 327.903236 123.105242 
L 333.172865 118.955941 
L 345.951797 109.244192 
L 346.967691 108.175559 
L 348.300378 106.712244 
L 349.262299 105.400796 
L 349.962266 104.130088 
L 350.541369 102.893879 
L 351.047734 101.496275 
L 351.361959 100.081453 
L 351.766043 96.950255 
L 351.744733 95.900009 
L 351.683131 94.843024 
L 351.548145 93.901507 
L 351.400819 93.130999 
L 351.101879 92.227988 
L 350.71715 91.195244 
L 350.39232 90.543391 
L 350.06749 89.891538 
L 349.543194 89.218679 
L 349.021319 88.72754 
L 348.343478 88.325692 
L 319.742289 81.889138 
L 236.566375 65.896184 
L 128.720122 45.496472 
L 126.875359 45.251926 
L 125.325127 45.100754 
L 122.794494 45.126321 
L 120.879539 45.201233 
L 119.525445 45.233506 
L 117.805726 45.465423 
L 116.373112 45.723051 
L 115.053917 46.032814 
L 113.93747 46.29361 
L 112.901262 46.507046 
L 79.895894 57.089181 
L 78.913384 57.400884 
L 77.592266 57.591832 
L 76.60264 57.673443 
L 75.48048 57.558911 
L 73.923417 57.124684 
L 72.759126 56.742156 
L 71.608553 56.169647 
L 70.156144 55.340618 
L 68.997117 54.437078 
L 47.178221 33.246171 
L 46.580826 32.715847 
L 46.024924 32.72815 
L 45.382412 32.75807 
L 44.814387 32.993314 
L 44.398087 33.253949 
L 43.97 33.663352 
L 43.639774 34.113516 
L 43.505892 34.906459 
L 37.672706 147.115452 
L 24.348063 454.885253 
L 23.755886 486.358688 
L 23.80623 488.988728 
L 24.035175 490.947238 
L 24.325259 492.692123 
L 24.695306 494.6444 
L 25.364475 497.193941 
L 25.895353 498.9642 
L 35.360088 520.273996 
L 121.006993 400.320893 
L 122.197482 400.464671 
L 124.572429 400.711346 
L 126.884973 400.857815 
L 132.874275 401.054278 
L 135.83415 400.810498 
L 138.481275 400.422957 
L 140.995626 399.959866 
L 144.18997 399.054368 
L 147.430932 397.893431 
L 150.790876 396.616256 
L 154.092903 394.970712 
L 157.62191 392.9125 
L 160.46446 390.757823 
L 164.374385 387.595348 
L 166.833358 385.269658 
L 169.520829 382.630064 
L 172.513552 379.037863 
L 175.449441 375.084213 
L 178.092535 370.846949 
L 190.818937 339.460389 
L 192.097065 336.600217 
L 193.616003 333.895476 
L 195.587913 330.914587 
L 197.616652 328.295145 
L 199.534391 326.022103 
L 201.964424 323.587116 
L 204.379334 321.31905 
L 206.798066 319.338387 
L 208.665455 318.060592 
L 210.492464 316.789076 
L 212.37248 315.591602 
L 214.662598 314.371499 
L 217.39572 313.007494 
L 219.853842 311.883575 
L 222.722951 310.844083 
L 224.974882 310.147787 
L 229.128337 309.210384 
L 231.438683 308.727506 
L 233.536747 308.475419 
L 236.518193 308.308465 
L 239.511023 308.213908 
L 242.106547 308.280022 
L 244.329803 308.380513 
L 246.875105 308.629978 
L 249.064182 308.960143 
L 251.121726 309.424632 
L 255.028134 310.37221 
L 257.146742 310.973543 
L 259.781259 311.949222 
L 262.655506 313.342193 
L 303.417427 333.620362 
L 304.587403 334.373068 
L 306.464561 335.6389 
L 308.347207 337.081908 
L 310.001201 338.493715 
L 312.421045 340.884209 
L 313.906818 342.552022 
L 315.296618 344.208017 
L 316.64008 345.911336 
L 317.812929 347.641189 
L 318.921404 349.47466 
L 319.815351 351.140909 
L 320.565741 352.74925 
L 321.239876 354.556664 
L 322.005379 356.379182 
L 322.483358 357.870602 
L 322.706968 360.014972 
L 322.737019 362.270154 
L 322.417568 364.676543 
L 321.811825 366.19123 
L 321.059074 367.906341 
L 319.957795 369.675654 
L 318.274912 371.74153 
L 316.798104 373.321016 
L 315.135391 375.181074 
L 313.097991 377.145159 
L 310.570126 379.208399 
L 309.082389 380.284762 
L 306.442909 382.1803 
L 302.476664 384.411306 
L 43.406565 528.447215 
L 42.343014 528.848373 
L 41.164859 529.033061 
L 39.72743 529.2 
L 38.719562 529.116419 
L 37.506809 528.980869 
L 36.382322 528.788216 
L 35.366637 528.564514 
L 34.258596 528.1149 
L 33.059059 527.354437 
L 31.714708 526.305549 
L 30.647629 525.183324 
L 29.791828 524.084898 
L 29.167326 522.882569 
L 19.872024 501.592171 
L 19.295807 499.778795 
L 18.539334 497.083334 
L 18.011259 494.51784 
L 17.664633 492.048246 
L 17.446159 489.600097 
L 17.506737 489.758682 
z
" clip-path="url(#ped7630ff12)"/>
   </g>
  </g>
 </g>
 <defs>
  <clipPath id="ped7630ff12">
   <rect x="0" y="0" width="381.665373" height="554.4"/>
  </clipPath>
 </defs>
</svg>
