<?xml version="1.0" encoding="utf-8" standalone="no"?>
<!DOCTYPE svg PUBLIC "-//W3C//DTD SVG 1.1//EN"
  "http://www.w3.org/Graphics/SVG/1.1/DTD/svg11.dtd">
<svg xmlns:xlink="http://www.w3.org/1999/xlink" width="380.787776pt" height="554.4pt" viewBox="0 0 380.787776 554.4" xmlns="http://www.w3.org/2000/svg" version="1.1">
 <metadata>
  <rdf:RDF xmlns:dc="http://purl.org/dc/elements/1.1/" xmlns:cc="http://creativecommons.org/ns#" xmlns:rdf="http://www.w3.org/1999/02/22-rdf-syntax-ns#">
   <cc:Work>
    <dc:type rdf:resource="http://purl.org/dc/dcmitype/StillImage"/>
    <dc:date>2026-01-24T13:27:50.055596</dc:date>
    <dc:format>image/svg+xml</dc:format>
    <dc:creator>
     <cc:Agent>
      <dc:title>Matplotlib v3.10.8, https://matplotlib.org/</dc:title>
     </cc:Agent>
    </dc:creator>
   </cc:Work>
  </rdf:RDF>
 </metadata>
 <defs>
  <style type="text/css">*{stroke-linejoin: round; stroke-linecap: butt}</style>
 </defs>
 <g id="figure_1">
  <g id="patch_1">
   <path d="M 0 554.4 
L 380.787776 554.4 
L 380.787776 0 
L 0 0 
L 0 554.4 
z
" style="fill: none"/>
  </g>
  <g id="axes_1">
   <g id="PatchCollection_1">
    <path d="M 17.308535 485.07718 
L 17.439135 477.663292 
L 17.57647 470.245861 
L 17.578472 470.172657 
L 17.846626 462.762454 
L 18.114779 455.352262 
L 18.382932 447.94208 
L 18.651084 440.531907 
L 18.919236 433.121745 
L 19.187387 425.711592 
L 19.455538 418.30145 
L 19.723688 410.891318 
L 19.991837 403.481195 
L 20.259986 396.071083 
L 20.528135 388.660981 
L 20.796283 381.250889 
L 21.06443 373.840806 
L 21.070007 373.728707 
L 21.538529 366.329375 
L 21.540991 366.293037 
L 22.074541 358.897201 
L 22.60809 351.501376 
L 23.141638 344.10556 
L 23.675184 336.709754 
L 24.208729 329.313959 
L 24.742273 321.918173 
L 25.275816 314.522397 
L 25.809357 307.126632 
L 26.342898 299.730876 
L 26.876436 292.33513 
L 27.409974 284.939394 
L 27.943511 277.543668 
L 28.477046 270.147952 
L 28.923328 263.961705 
L 29.156128 256.634128 
L 29.390804 249.247515 
L 29.560722 240.747159 
L 29.731128 232.222395 
L 33.83103 232.30435 
L 29.718818 231.99609 
L 30.100767 226.90087 
L 30.33338 219.579161 
L 30.568829 212.168197 
L 30.804278 204.757244 
L 31.039726 197.346301 
L 31.275173 189.935368 
L 31.510621 182.524444 
L 31.746067 175.113531 
L 31.981514 167.702628 
L 32.216959 160.291735 
L 32.452405 152.880852 
L 32.68785 145.469979 
L 32.923294 138.059116 
L 33.158738 130.648263 
L 33.159111 130.63703 
L 33.414633 123.226943 
L 33.416226 123.186486 
L 33.744084 115.779132 
L 34.071941 108.371788 
L 34.399797 100.964454 
L 34.727653 93.55713 
L 35.055507 86.149816 
L 35.383362 78.742512 
L 35.711215 71.335218 
L 36.039068 63.927934 
L 36.36692 56.52066 
L 36.694771 49.113397 
L 37.022622 41.706143 
L 37.350472 34.298899 
L 37.39222 33.867604 
L 37.478741 33.443019 
L 37.60909 33.029778 
L 37.781845 32.632394 
L 37.99512 32.255204 
L 38.246586 31.902326 
L 42.326813 26.767028 
L 42.596738 26.459727 
L 42.895621 26.180509 
L 43.220554 25.93209 
L 43.568377 25.716885 
L 43.935707 25.536989 
L 44.318971 25.394152 
L 44.714441 25.289761 
L 45.11827 25.224833 
L 45.526531 25.2 
L 45.935253 25.215502 
L 46.34046 25.27119 
L 46.73821 25.366521 
L 53.635596 27.384058 
L 54.006564 27.511909 
L 54.36379 27.674247 
L 54.704074 27.869618 
L 55.024372 28.096274 
L 55.321816 28.352186 
L 60.711225 33.452119 
L 60.814952 33.553776 
L 66.032636 38.84959 
L 71.149378 44.04294 
L 75.677411 48.042386 
L 80.860568 48.979536 
L 87.077269 47.531673 
L 94.020297 45.321548 
L 101.120207 43.061472 
L 108.220112 40.801389 
L 108.241588 40.794616 
L 115.349947 38.574277 
L 115.743701 38.472184 
L 116.145561 38.409157 
L 123.557602 37.616703 
L 123.90628 37.594226 
L 124.255613 37.601179 
L 131.6916 38.063085 
L 132.233907 38.132885 
L 139.547447 39.569596 
L 146.860986 41.006295 
L 154.174528 42.442986 
L 161.488074 43.879666 
L 168.801624 45.316337 
L 176.115177 46.752998 
L 183.428733 48.18965 
L 190.742295 49.626293 
L 198.055859 51.062925 
L 205.369428 52.499548 
L 212.682999 53.936162 
L 219.996575 55.372766 
L 227.310154 56.80936 
L 234.623737 58.245945 
L 241.937324 59.68252 
L 249.250914 61.119086 
L 256.564508 62.555642 
L 263.878106 63.992189 
L 271.191707 65.428726 
L 278.505312 66.865253 
L 285.818921 68.301771 
L 293.132533 69.738279 
L 300.446149 71.174778 
L 307.759769 72.611267 
L 315.073393 74.047746 
L 322.38702 75.484216 
L 329.700651 76.920677 
L 337.014286 78.357127 
L 344.327924 79.793569 
L 344.522885 79.836759 
L 351.750038 81.621392 
L 352.139396 81.738054 
L 352.515465 81.89227 
L 352.874631 82.082559 
L 359.059035 85.758057 
L 359.40129 85.985125 
L 359.719406 86.244932 
L 360.010263 86.534932 
L 360.271009 86.85228 
L 360.499085 87.193863 
L 360.692255 87.556331 
L 360.848625 87.936129 
L 363.244405 94.686815 
L 363.359603 95.06879 
L 363.437564 95.460067 
L 363.477566 95.857024 
L 363.479241 96.255989 
L 363.442571 96.653268 
L 363.367897 97.045185 
L 361.644149 104.200574 
L 361.519358 104.620011 
L 361.351065 105.023963 
L 361.141144 105.407934 
L 357.277402 111.666281 
L 357.001107 112.060608 
L 356.680971 112.420253 
L 351.445615 117.655337 
L 351.088337 117.973568 
L 345.25876 122.591519 
L 345.174282 122.656688 
L 339.225548 127.124873 
L 339.188822 127.152143 
L 333.190651 131.554824 
L 327.192465 135.957506 
L 321.19427 140.360184 
L 315.463539 144.566534 
L 310.489732 149.614994 
L 305.311423 154.932075 
L 300.124749 160.257736 
L 294.938065 165.583397 
L 294.855649 165.665678 
L 289.903748 170.472533 
L 286.454874 176.170083 
L 283.412894 182.652537 
L 280.391981 189.391668 
L 277.356345 196.163635 
L 277.07262 196.690908 
L 273.105286 202.936556 
L 272.893225 203.239632 
L 272.655002 203.522608 
L 272.392513 203.783231 
L 272.107846 204.01943 
L 271.803266 204.229324 
L 265.499247 208.170925 
L 265.053914 208.41285 
L 264.582399 208.598649 
L 257.623937 210.860092 
L 257.202176 210.972995 
L 256.770883 211.040933 
L 256.334837 211.063151 
L 248.94778 211.0502 
L 248.604336 211.035351 
L 248.263301 210.992109 
L 240.913805 209.748816 
L 233.640226 208.518356 
L 226.789983 207.619606 
L 220.29461 208.164072 
L 214.362756 210.061436 
L 209.248447 213.822896 
L 204.475 218.760038 
L 199.956733 224.41076 
L 195.316571 230.21392 
L 190.676398 236.017082 
L 186.036216 241.820246 
L 181.396024 247.623413 
L 176.755821 253.426582 
L 172.115609 259.229753 
L 167.475387 265.032927 
L 162.835156 270.836103 
L 162.824465 270.849417 
L 158.161899 276.631556 
L 157.91203 276.9141 
L 157.637524 277.172773 
L 157.340653 277.405437 
L 151.429397 281.618807 
L 151.085406 281.839278 
L 150.72139 282.024831 
L 150.340883 282.173665 
L 149.947577 282.284335 
L 149.54529 282.355768 
L 149.137926 282.387269 
L 148.729439 282.378534 
L 141.792646 281.887556 
L 141.384317 281.838208 
L 140.982884 281.748658 
L 140.592295 281.619785 
L 140.216392 281.452857 
L 139.858872 281.249516 
L 139.523252 281.011762 
L 139.212832 280.741933 
L 138.930666 280.442683 
L 138.679529 280.116956 
L 138.461891 279.767955 
L 135.054741 273.647897 
L 134.885938 273.309189 
L 134.748713 272.956504 
L 134.644208 272.592779 
L 134.573295 272.221041 
L 134.536563 271.844387 
L 134.156903 264.489387 
L 134.16367 263.956665 
L 134.732614 256.580186 
L 134.780623 256.19453 
L 136.040511 248.886511 
L 137.300396 241.578503 
L 138.560278 234.270504 
L 139.820157 226.962515 
L 141.080033 219.654535 
L 142.339905 212.346565 
L 143.599774 205.038604 
L 144.85964 197.730653 
L 146.114911 190.449345 
L 147.27507 183.152994 
L 148.437629 175.82966 
L 149.600267 168.505822 
L 150.762903 161.181993 
L 151.923956 153.868119 
L 153.039439 146.613991 
L 153.858354 139.880458 
L 152.876975 133.409205 
L 150.995811 127.21528 
L 147.546434 122.071969 
L 142.343783 117.56711 
L 136.721036 112.69849 
L 131.725642 108.373071 
L 129.496358 107.637595 
L 128.373632 110.062386 
L 127.439054 116.795391 
L 126.41955 124.140228 
L 125.400043 131.485074 
L 124.380533 138.829931 
L 123.36102 146.174797 
L 122.346623 153.482801 
L 121.479216 160.678042 
L 121.049713 167.953548 
L 120.612752 175.355392 
L 120.175791 182.757247 
L 119.738884 190.158165 
L 119.305422 197.558192 
L 118.875828 204.959402 
L 118.44617 212.361719 
L 118.016511 219.764047 
L 117.58685 227.166385 
L 117.157189 234.568732 
L 116.727527 241.97109 
L 116.297863 249.373458 
L 115.870064 256.743708 
L 115.556856 264.115824 
L 115.255627 271.520755 
L 114.954245 278.929431 
L 114.652863 286.338118 
L 114.351479 293.746814 
L 114.050095 301.15552 
L 113.748711 308.564237 
L 113.447326 315.972963 
L 113.14594 323.381699 
L 113.14522 323.398559 
L 112.813691 330.806027 
L 112.480583 338.214301 
L 112.147513 345.621724 
L 111.814443 353.029157 
L 111.481372 360.4366 
L 111.1483 367.844053 
L 110.815228 375.251517 
L 110.492684 382.424828 
L 110.944127 389.055082 
L 112.693887 394.352055 
L 116.59209 397.867761 
L 122.318441 399.797359 
L 128.804518 400.425799 
L 135.626039 399.784925 
L 142.390825 398.488098 
L 148.805466 396.029578 
L 155.073757 393.0456 
L 160.761151 389.081138 
L 166.186242 384.609242 
L 171.049404 379.693795 
L 175.086338 374.168727 
L 178.494461 368.203565 
L 181.083289 361.575893 
L 183.782983 354.664382 
L 186.48267 347.752879 
L 186.521884 347.656099 
L 189.39211 340.820984 
L 189.533187 340.519522 
L 192.946832 333.927801 
L 193.185024 333.525218 
L 197.295304 327.395557 
L 197.505883 327.108906 
L 197.74025 326.841353 
L 202.854895 321.484489 
L 203.251169 321.120051 
L 209.040102 316.451975 
L 209.488613 316.136841 
L 215.849017 312.269115 
L 216.211086 312.072875 
L 216.590832 311.913512 
L 223.518775 309.402936 
L 223.95298 309.271963 
L 231.19526 307.513055 
L 231.628985 307.431875 
L 232.068881 307.397235 
L 239.511906 307.208452 
L 239.698917 307.207927 
L 247.126391 307.354554 
L 247.560595 307.385979 
L 247.989112 307.462747 
L 255.246326 309.160263 
L 255.600255 309.259785 
L 255.943978 309.390262 
L 262.759805 312.329444 
L 262.90894 312.39728 
L 269.626029 315.614234 
L 269.680593 315.640859 
L 276.349392 318.955564 
L 276.354252 318.957983 
L 283.018737 322.281431 
L 289.683225 325.604869 
L 296.34772 328.928301 
L 303.012224 332.251727 
L 303.28313 332.399656 
L 303.542283 332.567324 
L 309.626326 336.832935 
L 310.052817 337.176073 
L 315.514395 342.19874 
L 315.83448 342.527597 
L 316.116271 342.889805 
L 320.303507 348.934538 
L 320.474654 349.203077 
L 324.221402 355.612247 
L 324.410274 355.975346 
L 324.562435 356.355294 
L 324.676405 356.748389 
L 324.751074 357.150804 
L 324.785714 357.558619 
L 325.038873 364.712495 
L 325.032657 365.129351 
L 324.984621 365.543477 
L 324.89525 365.950687 
L 324.765448 366.346868 
L 324.596526 366.728014 
L 324.390191 367.090276 
L 320.433716 373.289763 
L 320.226965 373.584657 
L 319.995409 373.860502 
L 319.740795 374.115217 
L 314.265196 379.136674 
L 313.936622 379.408269 
L 307.965521 383.847775 
L 307.595784 384.093095 
L 301.190682 387.865639 
L 301.090664 387.922694 
L 294.572708 391.521813 
L 288.05474 395.120929 
L 281.536762 398.720039 
L 275.018776 402.319145 
L 268.500781 405.918245 
L 261.982777 409.517339 
L 255.464765 413.116429 
L 248.946744 416.715513 
L 242.428714 420.314591 
L 235.910675 423.913665 
L 229.392627 427.512733 
L 222.874571 431.111796 
L 216.356506 434.710853 
L 209.838432 438.309905 
L 203.32035 441.908952 
L 196.802258 445.507994 
L 190.284158 449.10703 
L 183.766049 452.706061 
L 177.247932 456.305087 
L 170.729805 459.904107 
L 164.21167 463.503122 
L 157.693526 467.102132 
L 151.175373 470.701136 
L 144.657212 474.300135 
L 138.139042 477.899129 
L 131.620863 481.498118 
L 125.102675 485.097101 
L 118.584478 488.696079 
L 112.066273 492.295051 
L 105.548059 495.894018 
L 99.029836 499.49298 
L 92.511605 503.091937 
L 85.993364 506.690888 
L 79.475115 510.289834 
L 72.956857 513.888775 
L 66.43859 517.48771 
L 59.920315 521.08664 
L 53.402031 524.685565 
L 53.328792 524.725049 
L 46.739912 528.19233 
L 46.35199 528.371588 
L 45.947682 528.509976 
L 45.531279 528.606024 
L 45.107203 528.658712 
L 37.738959 529.190638 
L 37.332461 529.2 
L 36.926999 529.169511 
L 36.526472 529.099463 
L 36.13473 528.990531 
L 35.755537 528.843761 
L 35.392539 528.660565 
L 35.049225 528.442702 
L 34.728896 528.192268 
L 34.434629 527.91167 
L 29.559122 522.78332 
L 29.270591 522.445263 
L 29.019894 522.078271 
L 28.809909 521.686559 
L 25.658646 514.966302 
L 22.50739 508.24605 
L 19.356141 501.525803 
L 19.219144 501.197761 
L 19.110745 500.859191 
L 19.031739 500.512582 
L 17.708691 493.292635 
L 17.644959 492.731598 
L 17.312087 485.33672 
z
M 25.604042 485.093444 
L 25.91835 492.075915 
L 27.093712 498.489929 
L 30.017237 504.72454 
L 33.168491 511.444788 
L 36.03411 517.55589 
L 39.096009 520.776578 
L 43.644838 520.44819 
L 49.429318 517.404211 
L 55.911177 513.825398 
L 62.429443 510.226472 
L 68.947701 506.627542 
L 75.465951 503.028606 
L 81.984191 499.429665 
L 88.502423 495.830718 
L 95.020646 492.231766 
L 101.538858 488.63281 
L 108.057065 485.033847 
L 114.575262 481.434879 
L 121.09345 477.835906 
L 127.611629 474.236927 
L 134.129799 470.637944 
L 140.647961 467.038955 
L 147.166114 463.43996 
L 153.684258 459.840961 
L 160.202393 456.241956 
L 166.72052 452.642946 
L 173.238637 449.04393 
L 179.756746 445.444909 
L 186.274847 441.845883 
L 192.792938 438.246852 
L 199.311021 434.647815 
L 205.829095 431.048773 
L 212.34716 427.449725 
L 218.865216 423.850673 
L 225.383264 420.251615 
L 231.901303 416.652551 
L 238.419333 413.053483 
L 244.937354 409.454409 
L 251.455367 405.855329 
L 257.973371 402.256245 
L 264.491366 398.657155 
L 271.009352 395.05806 
L 277.527329 391.458959 
L 284.045298 387.859853 
L 290.563258 384.260742 
L 297.030804 380.689459 
L 303.194853 377.058892 
L 308.816383 372.879292 
L 313.734137 368.369412 
L 316.703911 363.716009 
L 316.533351 358.896236 
L 313.394374 353.526717 
L 309.560397 347.991952 
L 304.640067 343.467036 
L 299.033877 339.536455 
L 292.646166 336.351059 
L 285.981661 333.027622 
L 279.317164 329.704179 
L 272.655104 326.381941 
L 266.015921 323.081957 
L 259.400109 319.913506 
L 252.998121 317.152783 
L 246.525617 315.638816 
L 239.628718 315.502664 
L 232.722191 315.677839 
L 226.131222 317.278565 
L 219.805424 319.570933 
L 214.032897 323.081174 
L 208.667774 327.407499 
L 203.985718 332.311287 
L 200.204547 337.95015 
L 196.97522 344.185954 
L 194.189696 350.819361 
L 191.509006 357.682229 
L 188.809311 364.593744 
L 186.109609 371.505266 
L 185.847563 372.053707 
L 182.173008 378.4852 
L 181.920676 378.874537 
L 177.563997 384.837216 
L 177.372538 385.079742 
L 177.163553 385.30734 
L 171.934664 390.592446 
L 171.624381 390.875798 
L 165.907874 395.587908 
L 165.641548 395.789979 
L 159.53653 400.045551 
L 159.249079 400.228842 
L 158.947545 400.387904 
L 152.223976 403.588613 
L 151.92561 403.716575 
L 145.016452 406.364627 
L 144.669179 406.480423 
L 144.313046 406.565145 
L 136.992573 407.968499 
L 136.599673 408.024485 
L 129.186367 408.720956 
L 128.7924 408.739134 
L 128.398489 408.719807 
L 121.044998 408.007323 
L 120.577159 407.934846 
L 120.120628 407.809524 
L 113.128673 405.453458 
L 112.734592 405.297826 
L 112.358446 405.102797 
L 112.004163 404.870409 
L 111.675439 404.603085 
L 106.322951 399.775792 
L 106.019409 399.472101 
L 105.748893 399.138654 
L 105.514304 398.779024 
L 105.318156 398.397067 
L 105.162551 397.996876 
L 102.904046 391.1598 
L 102.809091 390.826072 
L 102.742364 390.485575 
L 102.704334 390.140693 
L 102.201414 382.754427 
L 102.19602 382.286408 
L 102.529094 374.878935 
L 102.862166 367.471472 
L 103.195238 360.064019 
L 103.528309 352.656576 
L 103.861379 345.249143 
L 104.194449 337.84172 
L 104.527498 330.434738 
L 104.858631 323.036129 
L 105.159674 315.635823 
L 105.461059 308.227097 
L 105.762444 300.818381 
L 106.063827 293.409675 
L 106.365211 286.000979 
L 106.666593 278.592293 
L 106.967975 271.183617 
L 107.269356 263.774951 
L 107.269667 263.767481 
L 107.584399 256.359477 
L 107.58763 256.295197 
L 108.017294 248.89282 
L 108.446957 241.490453 
L 108.87662 234.088095 
L 109.306281 226.685748 
L 109.735941 219.283411 
L 110.165601 211.881084 
L 110.595259 204.478766 
L 111.024916 197.076459 
L 111.458626 189.672194 
L 111.8957 182.268439 
L 112.332662 174.866585 
L 112.769622 167.464741 
L 113.206582 160.062907 
L 113.229186 159.810941 
L 114.116195 152.453105 
L 114.125768 152.379276 
L 115.145283 145.034401 
L 116.164795 137.689537 
L 117.184305 130.344682 
L 118.203812 122.999837 
L 119.223317 115.655001 
L 120.242818 108.310175 
L 120.31887 107.908694 
L 120.434061 107.516645 
L 120.587274 107.137835 
L 123.522441 100.798651 
L 123.709011 100.442164 
L 123.929247 100.105433 
L 124.181078 99.791628 
L 124.462132 99.503704 
L 124.769764 99.24437 
L 125.101079 99.016067 
L 125.452958 98.820944 
L 125.82209 98.660838 
L 126.204998 98.537256 
L 126.598081 98.45136 
L 126.997637 98.40396 
L 127.399906 98.395502 
L 127.801101 98.426064 
L 128.197447 98.49536 
L 128.585212 98.602738 
L 135.112414 100.756166 
L 135.494345 100.903444 
L 135.859897 101.087656 
L 136.205509 101.307008 
L 136.527813 101.559363 
L 142.150546 106.427982 
L 147.773285 111.296597 
L 153.396035 116.16521 
L 153.663383 116.418315 
L 153.907231 116.694133 
L 154.125659 116.990489 
L 158.228833 123.108666 
L 158.439564 123.459072 
L 158.614764 123.828526 
L 158.752732 124.213437 
L 160.900658 131.285702 
L 161.032757 131.869081 
L 162.14404 139.196927 
L 162.183461 139.570088 
L 162.188992 139.945285 
L 162.160588 140.319446 
L 161.265377 147.680327 
L 161.247531 147.809962 
L 160.120572 155.138718 
L 160.117463 155.158616 
L 158.954831 162.482436 
L 157.792195 169.806266 
L 156.629557 177.130106 
L 155.466916 184.453956 
L 154.302267 191.778543 
L 154.293432 191.831867 
L 153.033569 199.13981 
L 151.773703 206.447763 
L 150.513833 213.755725 
L 149.253961 221.063697 
L 147.994085 228.371678 
L 146.734206 235.679669 
L 145.474324 242.98767 
L 144.214438 250.29568 
L 142.987599 257.411997 
L 142.454141 264.328378 
L 142.770387 270.454871 
L 144.617216 273.772219 
L 147.828578 273.999515 
L 152.062589 270.981636 
L 156.362309 265.64947 
L 160.997207 259.852965 
L 165.637424 254.049796 
L 170.277632 248.24663 
L 174.91783 242.443467 
L 179.558018 236.640305 
L 184.198196 230.837147 
L 188.838364 225.03399 
L 193.478522 219.230836 
L 198.11867 213.427684 
L 198.376214 213.134939 
L 203.528203 207.806274 
L 203.780754 207.566128 
L 204.052574 207.348033 
L 209.995363 202.977246 
L 210.370476 202.731458 
L 210.769937 202.527611 
L 211.189072 202.368088 
L 218.215815 200.120512 
L 218.66918 200.003256 
L 219.132874 199.937857 
L 226.541211 199.316863 
L 226.984726 199.303506 
L 227.427129 199.337609 
L 234.795559 200.304345 
L 234.947819 200.327204 
L 242.297312 201.570507 
L 249.306975 202.756311 
L 255.688653 202.767499 
L 261.534035 200.867797 
L 266.608285 197.695112 
L 269.910282 192.496882 
L 272.823136 185.998821 
L 275.858763 179.226865 
L 275.88876 179.161473 
L 279.039104 172.448093 
L 279.245653 172.062286 
L 283.084328 165.720784 
L 283.280225 165.426288 
L 283.500504 165.149555 
L 283.74356 164.892597 
L 289.036574 159.754621 
L 294.182625 154.470682 
L 299.369293 149.145027 
L 304.555952 143.819372 
L 304.572705 143.802268 
L 309.787772 138.508928 
L 310.029297 138.282599 
L 310.288103 138.076251 
L 316.286304 133.673578 
L 322.284488 129.270908 
L 328.282669 124.868229 
L 334.262399 120.479084 
L 340.150188 116.056676 
L 345.750112 111.620646 
L 350.473817 106.897186 
L 353.735433 101.614142 
L 355.015591 96.30012 
L 353.533037 92.122669 
L 349.165112 89.526735 
L 342.631375 87.91333 
L 335.415731 86.496136 
L 328.102086 85.059683 
L 320.788444 83.623221 
L 313.474805 82.186748 
L 306.161171 80.750267 
L 298.84754 79.313775 
L 291.533913 77.877275 
L 284.220289 76.440764 
L 276.906669 75.004244 
L 269.593053 73.567715 
L 262.279441 72.131176 
L 254.965832 70.694627 
L 247.652227 69.258069 
L 240.338626 67.821501 
L 233.025028 66.384923 
L 225.711434 64.948336 
L 218.397844 63.51174 
L 211.084257 62.075134 
L 203.770674 60.638518 
L 196.457095 59.201893 
L 189.14352 57.765258 
L 181.829948 56.328613 
L 174.51638 54.891959 
L 167.202816 53.455296 
L 159.889255 52.018623 
L 152.575698 50.58194 
L 145.262145 49.145248 
L 137.948595 47.708546 
L 130.903897 46.324648 
L 124.09103 45.901449 
L 117.433273 46.61326 
L 110.725342 48.708524 
L 103.636161 50.965194 
L 96.53624 53.225273 
L 89.436313 55.485343 
L 89.119058 55.572634 
L 81.907029 57.252307 
L 81.491175 57.32706 
L 81.069872 57.359113 
L 80.647495 57.348133 
L 80.228427 57.294235 
L 73.062015 55.998499 
L 72.695124 55.914813 
L 72.337329 55.798214 
L 71.991575 55.649663 
L 71.660711 55.470383 
L 71.347459 55.26185 
L 71.054399 55.02578 
L 65.550565 50.164445 
L 65.341809 49.966762 
L 60.124115 44.670948 
L 54.957401 39.426867 
L 50.347129 35.064223 
L 47.086148 34.110361 
L 45.577397 36.009247 
L 45.309016 42.072905 
L 44.981165 49.480159 
L 44.653314 56.887423 
L 44.325462 64.294697 
L 43.997609 71.701981 
L 43.669755 79.109275 
L 43.341901 86.51658 
L 43.014046 93.923894 
L 42.686191 101.331218 
L 42.358335 108.738552 
L 42.030478 116.145896 
L 41.703515 123.533026 
L 41.448884 130.917265 
L 41.213618 138.322501 
L 40.978173 145.733364 
L 40.742728 153.144237 
L 40.507283 160.555121 
L 40.271837 167.966014 
L 40.036391 175.376917 
L 39.800944 182.78783 
L 39.565497 190.198754 
L 39.330049 197.609687 
L 39.094601 205.02063 
L 38.859153 212.431584 
L 38.623704 219.842547 
L 38.388254 227.253521 
L 38.378742 227.431844 
L 38.007231 232.38783 
L 38.023978 232.388165 
L 37.853572 240.912929 
L 37.683166 249.437693 
L 37.681903 249.486502 
L 37.446452 256.897515 
L 37.211 264.308539 
L 37.202342 264.475257 
L 36.750052 270.744776 
L 36.216517 278.140492 
L 35.682981 285.536219 
L 35.149443 292.931955 
L 34.615904 300.327702 
L 34.082364 307.723458 
L 33.548822 315.119225 
L 33.01528 322.515001 
L 32.481736 329.910787 
L 31.94819 337.306583 
L 31.414644 344.70239 
L 30.881096 352.098206 
L 30.347547 359.494032 
L 29.815307 366.871705 
L 29.351482 374.19685 
L 29.085364 381.550844 
L 28.817216 388.960937 
L 28.549067 396.371039 
L 28.280918 403.781152 
L 28.012769 411.191274 
L 27.744619 418.601407 
L 27.476468 426.011549 
L 27.208317 433.421702 
L 26.940165 440.831864 
L 26.672013 448.242037 
L 26.40386 455.65222 
L 26.135707 463.062412 
L 25.868877 470.436022 
L 25.732322 477.811247 
z
" clip-path="url(#p3ecb1ce5d2)"/>
   </g>
  </g>
 </g>
 <defs>
  <clipPath id="p3ecb1ce5d2">
   <rect x="0" y="0" width="380.787776" height="554.4"/>
  </clipPath>
 </defs>
</svg>
