<?xml version="1.0" encoding="utf-8" standalone="no"?>
<!DOCTYPE svg PUBLIC "-//W3C//DTD SVG 1.1//EN"
  "http://www.w3.org/Graphics/SVG/1.1/DTD/svg11.dtd">
<svg xmlns:xlink="http://www.w3.org/1999/xlink" width="558pt" height="312.199323pt" viewBox="0 0 558 312.199323" xmlns="http://www.w3.org/2000/svg" version="1.1">
 <metadata>
  <rdf:RDF xmlns:dc="http://purl.org/dc/elements/1.1/" xmlns:cc="http://creativecommons.org/ns#" xmlns:rdf="http://www.w3.org/1999/02/22-rdf-syntax-ns#">
   <cc:Work>
    <dc:type rdf:resource="http://purl.org/dc/dcmitype/StillImage"/>
    <dc:date>2026-01-24T13:27:50.188895</dc:date>
    <dc:format>image/svg+xml</dc:format>
    <dc:creator>
     <cc:Agent>
      <dc:title>Matplotlib v3.10.8, https://matplotlib.org/</dc:title>
     </cc:Agent>
    </dc:creator>
   </cc:Work>
  </rdf:RDF>
 </metadata>
 <defs>
  <style type="text/css">*{stroke-linejoin: round; stroke-linecap: butt}</style>
 </defs>
 <g id="figure_1">
  <g id="patch_1">
   <path d="M 0 312.199323 
L 558 312.199323 
L 558 0 
L 0 0 
L 0 312.199323 
z
" style="fill: none"/>
  </g>
  <g id="axes_1">
   <g id="PatchCollection_1">
    <path d="M 25.363636 283.73066 
L 25.384102 283.482583 
L 25.426804 283.237352 
L 25.491396 282.996958 
L 25.577353 282.76335 
L 27.087817 279.166989 
L 27.217438 278.899613 
L 27.375013 278.647696 
L 27.558721 278.414151 
L 27.766438 278.201676 
L 30.677422 275.527939 
L 30.685396 275.520644 
L 33.608757 272.856537 
L 36.532112 270.192426 
L 39.455456 267.528316 
L 42.378791 264.864205 
L 45.302118 262.200092 
L 48.225436 259.535978 
L 51.148746 256.871863 
L 54.072047 254.207746 
L 56.995339 251.543628 
L 59.918622 248.879509 
L 62.841898 246.215387 
L 65.765165 243.551264 
L 68.688423 240.887141 
L 71.611673 238.223015 
L 74.510678 235.580976 
L 77.055449 233.148783 
L 78.58178 230.517668 
L 79.051391 227.811037 
L 78.192091 224.65945 
L 77.032054 220.937553 
L 75.857236 217.168224 
L 74.682423 213.398903 
L 74.595815 213.036719 
L 73.943542 209.174361 
L 73.914959 208.949097 
L 73.904964 208.722248 
L 73.913622 208.495343 
L 74.224714 204.577141 
L 74.254008 204.339365 
L 74.303783 204.105018 
L 74.373664 203.875862 
L 75.68659 200.156537 
L 75.698092 200.124579 
L 77.058285 196.417143 
L 78.41847 192.709716 
L 79.778649 189.002294 
L 81.138822 185.294879 
L 82.498989 181.587471 
L 83.859151 177.880068 
L 85.219306 174.172671 
L 86.579455 170.465281 
L 87.939598 166.757897 
L 89.299735 163.050519 
L 90.659866 159.343147 
L 92.019991 155.635781 
L 93.38011 151.928421 
L 94.740223 148.221068 
L 96.10033 144.513721 
L 97.460431 140.80638 
L 98.820526 137.099044 
L 100.180615 133.391716 
L 101.540697 129.684393 
L 102.900774 125.977076 
L 104.260845 122.269766 
L 105.62091 118.562462 
L 106.980969 114.855163 
L 108.341021 111.147872 
L 109.701068 107.440586 
L 111.061109 103.733306 
L 112.421143 100.026032 
L 113.781172 96.318765 
L 113.906526 96.029322 
L 114.064042 95.756046 
L 114.251667 95.502496 
L 116.778768 92.46638 
L 116.949786 92.279103 
L 117.137251 92.108291 
L 120.128111 89.624395 
L 120.338458 89.466007 
L 120.562923 89.328353 
L 124.031503 87.42238 
L 127.500071 85.516404 
L 130.968633 83.610423 
L 134.437187 81.704437 
L 137.905735 79.798446 
L 141.374275 77.892449 
L 144.685343 76.072977 
L 147.26505 74.182979 
L 148.698519 71.719356 
L 149.36783 68.301998 
L 150.126569 64.428027 
L 150.164286 64.262558 
L 151.150248 60.477409 
L 151.237359 60.202621 
L 151.352616 59.938401 
L 151.494765 59.687622 
L 151.662261 59.453011 
L 151.853281 59.237122 
L 154.592542 56.448828 
L 154.791676 56.26508 
L 155.007845 56.101714 
L 155.23897 55.960299 
L 158.664876 54.088476 
L 158.958703 53.949703 
L 159.266787 53.846375 
L 163.088539 52.8101 
L 166.910281 51.77382 
L 170.732019 50.737532 
L 174.553754 49.701236 
L 178.375484 48.664932 
L 182.197211 47.628621 
L 186.018933 46.592302 
L 186.339799 46.525429 
L 190.252245 45.949541 
L 190.318063 45.94066 
L 194.248926 45.458241 
L 198.179781 44.975814 
L 202.110634 44.493379 
L 206.041487 44.010935 
L 209.972337 43.528482 
L 213.903186 43.046021 
L 217.834033 42.563552 
L 221.76488 42.081073 
L 225.695725 41.598587 
L 229.626568 41.116091 
L 233.557409 40.633587 
L 237.488249 40.151075 
L 241.419088 39.668554 
L 245.349924 39.186025 
L 245.601133 39.166757 
L 249.558177 39.044216 
L 249.581195 39.043599 
L 253.540637 38.953994 
L 257.500073 38.86438 
L 257.749216 38.869978 
L 261.699737 39.1373 
L 261.711461 39.138118 
L 265.661562 39.42229 
L 269.611659 39.706454 
L 273.561758 39.990608 
L 277.511858 40.274755 
L 277.757616 40.303537 
L 281.663233 40.939288 
L 281.752715 40.955369 
L 284.866047 41.567883 
L 289.466632 42.343116 
L 288.908052 45.657986 
L 289.502866 42.34755 
L 293.400324 43.04784 
L 297.29778 43.74812 
L 301.195239 44.448393 
L 305.092702 45.148658 
L 308.990169 45.848915 
L 312.887639 46.549165 
L 316.785112 47.249406 
L 320.682589 47.949639 
L 324.58007 48.649864 
L 328.477554 49.350082 
L 332.299411 50.036704 
L 335.943474 50.484132 
L 339.707052 50.410519 
L 343.651274 50.333363 
L 346.877283 50.234028 
L 350.835897 50.112127 
L 354.79451 49.990217 
L 358.753124 49.868298 
L 362.711738 49.746371 
L 366.670351 49.624435 
L 370.628965 49.50249 
L 374.587579 49.380537 
L 378.546193 49.258575 
L 382.504806 49.136604 
L 386.46342 49.014624 
L 390.422034 48.892636 
L 394.380648 48.770639 
L 398.339263 48.648634 
L 402.297877 48.526619 
L 406.256491 48.404596 
L 410.215105 48.282565 
L 414.173719 48.160524 
L 418.080354 48.040078 
L 421.772773 47.786946 
L 425.401163 47.011451 
L 429.177826 46.051482 
L 432.866101 45.086714 
L 436.413591 43.769482 
L 440.050797 42.320942 
L 443.688528 40.837154 
L 447.316734 39.300371 
L 450.961939 37.756379 
L 454.607139 36.21238 
L 458.252332 34.668375 
L 458.265165 34.662977 
L 461.918129 33.137337 
L 465.573638 31.613304 
L 469.227549 30.08993 
L 472.881453 28.56655 
L 476.535352 27.043163 
L 480.189245 25.519769 
L 483.843132 23.996369 
L 487.497014 22.472963 
L 491.15089 20.94955 
L 494.804757 19.426131 
L 498.458624 17.902704 
L 502.112483 16.379271 
L 502.188183 16.349011 
L 505.881059 14.935656 
L 506.171461 14.842528 
L 506.470354 14.781959 
L 510.347999 14.216764 
L 510.611236 14.191183 
L 510.875712 14.190878 
L 511.139007 14.215853 
L 515.026107 14.773286 
L 515.273163 14.820274 
L 515.514925 14.889522 
L 515.749393 14.980458 
L 515.974624 15.092329 
L 516.188755 15.22421 
L 519.417659 17.421521 
L 519.636387 17.586816 
L 519.837665 17.772968 
L 520.01951 17.978144 
L 520.180133 18.200326 
L 520.317955 18.437328 
L 522.131196 21.944989 
L 523.942814 25.457036 
L 525.753327 28.966938 
L 527.563847 32.476846 
L 529.374374 35.986759 
L 531.184907 39.496677 
L 531.289138 39.723293 
L 531.372515 39.958382 
L 532.518207 43.719567 
L 532.577942 43.951198 
L 532.617427 44.187126 
L 532.636364 44.425585 
L 532.634611 44.664788 
L 532.4352 48.601396 
L 532.408142 48.871695 
L 532.35468 49.138032 
L 532.275332 49.397834 
L 532.170864 49.648593 
L 532.042285 49.887885 
L 531.890838 50.1134 
L 531.717984 50.322959 
L 529.09194 53.205494 
L 528.905064 53.391907 
L 528.70126 53.559643 
L 528.482384 53.707174 
L 528.250433 53.833153 
L 524.685839 55.554108 
L 521.121234 57.275059 
L 517.556622 58.996004 
L 513.992004 60.716943 
L 510.427379 62.437876 
L 506.862748 64.158804 
L 503.298111 65.879725 
L 499.733467 67.600641 
L 496.188441 69.312077 
L 492.699442 71.064825 
L 489.382809 72.825661 
L 486.353234 74.952808 
L 483.457643 77.226003 
L 480.859204 79.94057 
L 478.125123 82.796831 
L 475.391034 85.653092 
L 472.656937 88.509352 
L 469.92283 91.365613 
L 467.188715 94.221873 
L 464.454591 97.078133 
L 461.720459 99.934392 
L 458.994382 102.782227 
L 456.295978 105.6492 
L 453.599983 108.534443 
L 450.900566 111.423341 
L 448.201139 114.312239 
L 448.124861 114.390699 
L 445.313359 117.170323 
L 445.294073 117.189204 
L 442.454915 119.94187 
L 439.615745 122.694539 
L 436.776566 125.447207 
L 436.50494 125.678489 
L 433.334485 128.042808 
L 433.323693 128.050815 
L 430.140724 130.400471 
L 426.957743 132.750127 
L 423.774755 135.09978 
L 420.591758 137.44943 
L 417.408752 139.799076 
L 417.206274 139.93516 
L 413.828445 141.995002 
L 413.753374 142.039174 
L 410.315227 143.989906 
L 410.084928 144.106705 
L 406.47451 145.730414 
L 402.864081 147.35412 
L 399.253646 148.977819 
L 395.643205 150.601513 
L 392.032758 152.2252 
L 388.422305 153.848881 
L 384.811845 155.472555 
L 381.20138 157.096224 
L 377.590908 158.719886 
L 373.980431 160.343542 
L 370.369947 161.967192 
L 366.759457 163.590835 
L 366.397294 163.724159 
L 362.667972 164.808119 
L 362.409269 164.869984 
L 362.145817 164.906694 
L 361.880056 164.91791 
L 361.614448 164.903527 
L 361.351452 164.863679 
L 361.093505 164.798734 
L 360.842995 164.709295 
L 360.602243 164.596189 
L 360.373478 164.460464 
L 357.437219 162.521528 
L 357.221068 162.363234 
L 357.021257 162.184757 
L 356.839666 161.987772 
L 356.677999 161.774132 
L 356.537776 161.545843 
L 356.420314 161.305051 
L 355.140449 158.322614 
L 353.69472 157.181964 
L 350.757222 157.298522 
L 346.799612 157.455548 
L 342.842002 157.612565 
L 338.884391 157.769573 
L 334.926781 157.926573 
L 330.96917 158.083564 
L 327.011559 158.240547 
L 323.053948 158.39752 
L 319.096337 158.554485 
L 315.138726 158.711442 
L 311.181115 158.868389 
L 307.223504 159.025328 
L 303.265892 159.182259 
L 299.308281 159.33918 
L 295.350669 159.496093 
L 291.393058 159.652997 
L 287.435446 159.809893 
L 283.477834 159.966779 
L 279.520222 160.123658 
L 275.56261 160.280527 
L 271.604998 160.437388 
L 267.647386 160.59424 
L 263.689773 160.751083 
L 259.732161 160.907917 
L 255.774548 161.064743 
L 251.816936 161.221561 
L 247.859323 161.378369 
L 243.90171 161.535169 
L 239.944097 161.69196 
L 239.825434 161.694111 
L 235.872974 161.680887 
L 235.593929 161.665827 
L 235.317832 161.622666 
L 231.470848 160.820219 
L 231.092295 160.712636 
L 227.370983 159.362058 
L 223.649673 158.011472 
L 223.622748 158.001542 
L 220.455168 156.81456 
L 218.139252 156.935427 
L 216.316586 158.542756 
L 214.507296 161.563748 
L 212.477199 164.953414 
L 210.45007 168.338114 
L 208.437635 171.73045 
L 206.439585 175.103607 
L 204.666653 178.248574 
L 203.782862 181.168962 
L 204.106368 184.320413 
L 205.005803 187.965559 
L 205.951542 191.798352 
L 206.897284 195.631153 
L 207.843029 199.463962 
L 208.788778 203.296779 
L 209.73453 207.129603 
L 210.680286 210.962436 
L 211.626046 214.795276 
L 212.571809 218.628124 
L 213.517575 222.460979 
L 214.463345 226.293843 
L 214.472198 226.330815 
L 215.364893 230.175168 
L 215.388568 230.287704 
L 216.120747 234.166787 
L 216.122904 234.178349 
L 216.838252 238.058787 
L 216.875642 238.344407 
L 216.883102 238.632367 
L 216.779567 242.578335 
L 216.67603 246.524312 
L 216.643679 246.879581 
L 216.03357 250.774225 
L 216.023399 250.834753 
L 215.325944 254.720552 
L 215.279986 254.929664 
L 215.21798 255.134591 
L 213.930398 258.862519 
L 213.915176 258.905441 
L 212.564573 262.616517 
L 211.213964 266.3276 
L 209.863349 270.03869 
L 209.836881 270.108469 
L 208.388362 273.777187 
L 208.277656 274.022013 
L 206.476922 277.538278 
L 204.67618 281.05455 
L 204.559141 281.260775 
L 204.424857 281.45621 
L 204.274316 281.639415 
L 201.648334 284.569343 
L 201.395049 284.817823 
L 198.428873 287.375543 
L 198.210446 287.545588 
L 197.976107 287.692932 
L 197.728204 287.816097 
L 194.12594 289.386082 
L 193.822686 289.497646 
L 193.508485 289.573057 
L 189.646427 290.264125 
L 189.338392 290.30155 
L 189.028103 290.304211 
L 188.719471 290.272075 
L 184.814251 289.642199 
L 180.918927 289.02777 
L 177.013507 288.446922 
L 173.096055 287.864276 
L 169.178606 287.281622 
L 169.165652 287.279664 
L 165.251058 286.678454 
L 165.245525 286.677599 
L 161.332151 286.06846 
L 157.431049 285.461222 
L 153.57296 284.896155 
L 149.684384 284.464606 
L 145.827217 284.036534 
L 141.996644 283.834209 
L 138.078365 283.745476 
L 134.14821 283.656467 
L 130.364205 283.652276 
L 126.565928 284.041391 
L 122.69228 284.438218 
L 118.858832 285.019728 
L 114.96497 285.654904 
L 111.055889 286.292554 
L 107.146806 286.930195 
L 103.237721 287.567828 
L 99.328634 288.205452 
L 95.419544 288.843069 
L 91.510452 289.480676 
L 87.601358 290.118275 
L 83.692262 290.755866 
L 79.783163 291.393449 
L 75.874063 292.031023 
L 71.96496 292.668588 
L 68.055855 293.306145 
L 64.146748 293.943694 
L 60.237638 294.581235 
L 56.328526 295.218766 
L 52.419413 295.85629 
L 48.510297 296.493805 
L 44.601178 297.131312 
L 40.692058 297.76881 
L 40.390449 297.801131 
L 36.435753 298.006385 
L 36.196856 298.008445 
L 35.958673 297.989867 
L 35.722985 297.95079 
L 35.491551 297.891507 
L 31.771424 296.765154 
L 31.499561 296.667053 
L 31.239429 296.541099 
L 30.993871 296.388668 
L 30.765573 296.211429 
L 30.557032 296.011319 
L 27.902949 293.183514 
L 27.703703 292.945795 
L 27.532347 292.687249 
L 27.391039 292.411131 
L 25.803188 288.825452 
L 25.711932 288.591125 
L 25.64235 288.349473 
L 25.59502 288.102498 
L 25.570333 287.852244 
L 25.365573 283.979573 
z
M 30.919207 284.320076 
L 31.063671 287.052339 
L 32.255238 289.743133 
L 34.081396 291.68882 
L 36.631368 292.460882 
L 39.952238 292.288525 
L 43.711436 291.675476 
L 47.620542 291.037971 
L 51.529646 290.400458 
L 55.438748 289.762936 
L 59.347848 289.125406 
L 63.256946 288.487868 
L 67.166041 287.850321 
L 71.075134 287.212766 
L 74.984225 286.575202 
L 78.893314 285.93763 
L 82.8024 285.30005 
L 86.711484 284.662461 
L 90.620567 284.024864 
L 94.529647 283.387258 
L 98.438724 282.749644 
L 102.3478 282.112021 
L 106.256873 281.47439 
L 110.165944 280.836751 
L 114.075013 280.199103 
L 117.98408 279.561447 
L 118.014529 279.556654 
L 121.92944 278.962787 
L 122.062299 278.945914 
L 126.002576 278.542262 
L 129.942845 278.138601 
L 130.227585 278.124212 
L 134.184095 278.128593 
L 134.243617 278.1293 
L 138.203523 278.218984 
L 142.163424 278.308659 
L 142.246632 278.311798 
L 146.198519 278.52053 
L 146.357609 278.533549 
L 150.294127 278.970427 
L 154.230642 279.407296 
L 154.326318 279.419608 
L 158.24443 279.993467 
L 158.268998 279.997178 
L 162.182369 280.606325 
L 166.092972 281.215033 
L 169.998323 281.814823 
L 173.909286 282.396512 
L 177.826727 282.979156 
L 181.74417 283.561792 
L 181.768212 283.565476 
L 185.680281 284.182547 
L 185.689744 284.184057 
L 189.135541 284.739831 
L 192.215084 284.188784 
L 195.135915 282.91579 
L 197.650479 280.747492 
L 199.919024 278.216373 
L 201.556685 275.018545 
L 203.296107 271.622002 
L 204.681526 268.113103 
L 206.019377 264.437083 
L 207.369985 260.726004 
L 208.712799 257.03633 
L 209.922892 253.532754 
L 210.577015 249.888373 
L 211.154711 246.200638 
L 211.253559 242.433342 
L 211.349507 238.776512 
L 210.687662 235.1863 
L 209.967241 231.36951 
L 209.091855 227.599694 
L 208.150639 223.785285 
L 207.204872 219.952427 
L 206.259109 216.119577 
L 205.313349 212.286735 
L 204.367592 208.4539 
L 203.421839 204.621074 
L 202.47609 200.788255 
L 201.530344 196.955444 
L 200.584602 193.122641 
L 199.638863 189.289846 
L 198.693127 185.457059 
L 198.627092 185.077161 
L 198.2272 181.181593 
L 198.212766 180.908343 
L 198.225421 180.635006 
L 198.265041 180.364259 
L 198.331238 180.098756 
L 199.463922 176.355929 
L 199.567506 176.071036 
L 199.701667 175.799201 
L 201.63869 172.363156 
L 201.66834 172.311853 
L 203.681955 168.912419 
L 205.69874 165.51275 
L 205.70467 165.502801 
L 207.734773 162.113134 
L 209.764867 158.723475 
L 211.794952 155.333819 
L 211.953248 155.097924 
L 212.134922 154.879523 
L 212.338055 154.680925 
L 215.20534 152.152393 
L 215.412001 151.987043 
L 215.63353 151.842217 
L 215.867896 151.719245 
L 216.112949 151.619252 
L 216.366443 151.543157 
L 216.626053 151.491657 
L 216.889398 151.465224 
L 220.741934 151.26416 
L 221.025581 151.263931 
L 221.307758 151.292774 
L 221.585493 151.350384 
L 221.855861 151.436156 
L 225.549057 152.820101 
L 229.256874 154.16579 
L 232.792743 155.449065 
L 236.171994 156.153947 
L 239.784574 156.166034 
L 243.682873 156.011592 
L 247.640474 155.854793 
L 251.598071 155.697985 
L 255.555675 155.541168 
L 259.513275 155.384343 
L 263.470876 155.227509 
L 267.428476 155.070666 
L 271.386076 154.913814 
L 275.343676 154.756954 
L 279.301276 154.600085 
L 283.258876 154.443208 
L 287.216476 154.286321 
L 291.174075 154.129426 
L 295.131675 153.972523 
L 299.089274 153.81561 
L 303.046874 153.658689 
L 307.004473 153.50176 
L 310.962072 153.344821 
L 314.919671 153.187874 
L 318.87727 153.030918 
L 322.834869 152.873954 
L 326.792467 152.71698 
L 330.750066 152.559998 
L 334.707665 152.403008 
L 338.665263 152.246008 
L 342.622862 152.089 
L 346.58046 151.931984 
L 350.538058 151.774958 
L 354.495656 151.617924 
L 354.774934 151.620965 
L 355.052479 151.652175 
L 355.325458 151.711235 
L 355.591082 151.797543 
L 355.84664 151.910217 
L 356.089523 152.048106 
L 356.317249 152.209804 
L 359.115579 154.417628 
L 359.322639 154.598403 
L 359.510719 154.79885 
L 359.67796 155.016987 
L 359.822707 155.250657 
L 359.943529 155.497548 
L 361.173885 158.364615 
L 362.352739 159.143062 
L 364.668665 158.469918 
L 368.102733 156.925612 
L 371.713207 155.301966 
L 375.323674 153.678315 
L 378.934135 152.054658 
L 382.54459 150.430994 
L 386.155039 148.807324 
L 389.765482 147.183648 
L 393.375919 145.559965 
L 396.98635 143.936277 
L 400.596774 142.312582 
L 404.207193 140.688881 
L 407.699724 139.118188 
L 410.987568 137.252734 
L 414.223965 135.27914 
L 417.308733 133.00201 
L 420.491722 130.652367 
L 423.674702 128.30272 
L 426.857675 125.95307 
L 430.035234 123.607407 
L 433.057012 121.353963 
L 435.76785 118.725724 
L 438.607016 115.97306 
L 441.436482 113.22979 
L 444.199472 110.498128 
L 446.861533 107.649219 
L 449.560944 104.760327 
L 452.260347 101.871436 
L 452.267183 101.864146 
L 454.977005 98.985043 
L 454.993062 98.968126 
L 457.7272 96.11187 
L 460.461327 93.255617 
L 463.195444 90.399364 
L 465.929553 87.54311 
L 468.663653 84.686856 
L 471.397745 81.830602 
L 474.131828 78.974348 
L 476.865902 76.118093 
L 479.599967 73.261838 
L 479.889877 72.999029 
L 482.997819 70.559128 
L 483.11631 70.471117 
L 486.346827 68.202883 
L 486.639001 68.023705 
L 490.134791 66.167753 
L 490.190122 66.139171 
L 493.726418 64.362663 
L 493.765513 64.343407 
L 497.330158 62.6225 
L 500.894792 60.901589 
L 504.459419 59.180672 
L 508.02404 57.459749 
L 511.588655 55.738821 
L 515.153263 54.017887 
L 518.717864 52.296946 
L 522.282459 50.576 
L 525.365591 49.087492 
L 526.964483 47.332433 
L 527.089324 44.867917 
L 526.157399 41.808506 
L 524.461566 38.520947 
L 522.651037 35.01103 
L 520.840515 31.501118 
L 519.029999 27.991211 
L 517.220045 24.482385 
L 515.728856 21.597724 
L 513.607869 20.154365 
L 510.749869 19.744511 
L 507.570828 20.207879 
L 504.202155 21.497154 
L 500.585918 23.0049 
L 496.932043 24.528331 
L 493.278162 26.051755 
L 489.624276 27.575172 
L 485.970384 29.098584 
L 482.316486 30.621988 
L 478.662582 32.145386 
L 475.008673 33.668777 
L 471.354758 35.192162 
L 467.700837 36.715541 
L 464.047704 38.238582 
L 460.401958 39.761208 
L 456.763169 41.3025 
L 453.117959 42.846503 
L 449.472744 44.3905 
L 445.827522 45.93449 
L 445.793407 45.948671 
L 442.127969 47.443761 
L 442.106728 47.452323 
L 438.428752 48.9171 
L 438.368217 48.940389 
L 434.661061 50.316907 
L 434.398404 50.399797 
L 430.567465 51.401882 
L 430.548914 51.406666 
L 426.711594 52.382053 
L 426.608384 52.40619 
L 422.735772 53.233883 
L 422.347118 53.288456 
L 418.406548 53.5586 
L 418.302685 53.56376 
L 414.344065 53.685809 
L 410.385438 53.80785 
L 406.426812 53.929882 
L 402.468186 54.051905 
L 398.509559 54.17392 
L 394.550933 54.295926 
L 390.592307 54.417923 
L 386.633681 54.539911 
L 382.675055 54.661891 
L 378.716429 54.783863 
L 374.757803 54.905825 
L 370.799177 55.027779 
L 366.840551 55.149724 
L 362.881925 55.27166 
L 358.9233 55.393588 
L 354.964674 55.515507 
L 351.006048 55.637417 
L 347.047423 55.759319 
L 343.805906 55.859131 
L 343.774896 55.859912 
L 339.815161 55.937371 
L 335.85542 56.014822 
L 335.464532 55.994749 
L 331.549467 55.514046 
L 331.397566 55.491093 
L 327.500073 54.790883 
L 323.602577 54.090663 
L 319.705084 53.390436 
L 315.807596 52.690201 
L 311.91011 51.989957 
L 308.012629 51.289706 
L 304.115151 50.589447 
L 300.217676 49.88918 
L 296.320205 49.188905 
L 292.422738 48.488622 
L 288.548373 47.792481 
L 288.548088 47.794176 
L 283.910271 47.01267 
L 283.835993 46.999107 
L 280.730224 46.388081 
L 276.991715 45.779532 
L 273.165132 45.504271 
L 269.215022 45.220115 
L 265.264913 44.935951 
L 261.320668 44.6522 
L 257.500456 44.393697 
L 253.665712 44.480488 
L 249.717774 44.569833 
L 245.898282 44.688115 
L 242.092604 45.15528 
L 238.161753 45.637803 
L 234.230901 46.120317 
L 230.300048 46.602822 
L 226.369193 47.085319 
L 222.438336 47.567807 
L 218.507478 48.050286 
L 214.576619 48.532757 
L 210.645757 49.01522 
L 206.714895 49.497674 
L 202.784031 49.980119 
L 198.853165 50.462556 
L 194.922298 50.944984 
L 191.024391 51.423359 
L 187.307219 51.970504 
L 183.643937 52.96386 
L 179.822199 54.000174 
L 176.000457 55.036481 
L 172.178711 56.07278 
L 168.356961 57.109071 
L 164.535208 58.145355 
L 161.028712 59.096147 
L 158.248864 60.614981 
L 156.313678 62.584808 
L 155.535093 65.573826 
L 154.792672 69.364485 
L 154.033929 73.238467 
L 153.958234 73.536153 
L 153.849975 73.823601 
L 153.71049 74.097262 
L 151.752889 77.461681 
L 151.597499 77.699681 
L 151.418488 77.920464 
L 151.217749 78.121694 
L 150.997404 78.301245 
L 147.807402 80.638371 
L 147.504998 80.831088 
L 144.03646 82.737092 
L 140.567909 84.643094 
L 137.099352 86.54909 
L 133.630788 88.455082 
L 130.162217 90.361068 
L 126.693639 92.267049 
L 123.456609 94.045786 
L 120.864726 96.198332 
L 118.806226 98.671459 
L 117.610851 101.929904 
L 116.250814 105.637182 
L 114.890772 109.344466 
L 113.530723 113.051757 
L 112.170669 116.759053 
L 110.810609 120.466356 
L 109.450542 124.173665 
L 108.09047 127.88098 
L 106.730391 131.588301 
L 105.370306 135.295629 
L 104.010216 139.002962 
L 102.650119 142.710302 
L 101.290017 146.417648 
L 99.929908 150.125 
L 98.569793 153.832358 
L 97.209673 157.539722 
L 95.849546 161.247093 
L 94.489413 164.954469 
L 93.129274 168.661852 
L 91.76913 172.369241 
L 90.408979 176.076636 
L 89.048822 179.784037 
L 87.688659 183.491444 
L 86.32849 187.198858 
L 84.968315 190.906277 
L 83.608134 194.613703 
L 82.247947 198.321135 
L 80.893604 202.012629 
L 79.706669 205.375041 
L 79.451294 208.5915 
L 80.015467 211.932187 
L 81.134749 215.52334 
L 82.309566 219.292666 
L 83.484388 223.061999 
L 83.512244 223.157375 
L 84.54643 226.950378 
L 84.609912 227.24613 
L 84.640695 227.547047 
L 84.638411 227.849526 
L 84.603087 228.149944 
L 83.943833 231.949598 
L 83.891437 232.188358 
L 83.81815 232.421555 
L 83.724547 232.647364 
L 83.611359 232.864021 
L 81.63993 236.262403 
L 81.499009 236.480946 
L 81.338175 236.685278 
L 81.158849 236.873591 
L 78.306402 239.599849 
L 78.258463 239.644592 
L 75.335218 242.308722 
L 72.411961 244.972853 
L 69.488696 247.636984 
L 66.565422 250.301113 
L 63.64214 252.96524 
L 60.718849 255.629366 
L 57.79555 258.293491 
L 54.872242 260.957614 
L 51.948925 263.621736 
L 49.0256 266.285856 
L 46.102266 268.949975 
L 43.178924 271.614093 
L 40.255573 274.278209 
L 37.332214 276.942324 
L 34.41284 279.602798 
L 31.950603 281.864361 
z
" clip-path="url(#p523c9561dd)"/>
   </g>
  </g>
 </g>
 <defs>
  <clipPath id="p523c9561dd">
   <rect x="0" y="0" width="558" height="312.199323"/>
  </clipPath>
 </defs>
</svg>
