<?xml version="1.0" encoding="utf-8" standalone="no"?>
<!DOCTYPE svg PUBLIC "-//W3C//DTD SVG 1.1//EN"
  "http://www.w3.org/Graphics/SVG/1.1/DTD/svg11.dtd">
<svg xmlns:xlink="http://www.w3.org/1999/xlink" width="558pt" height="310.330023pt" viewBox="0 0 558 310.330023" xmlns="http://www.w3.org/2000/svg" version="1.1">
 <metadata>
  <rdf:RDF xmlns:dc="http://purl.org/dc/elements/1.1/" xmlns:cc="http://creativecommons.org/ns#" xmlns:rdf="http://www.w3.org/1999/02/22-rdf-syntax-ns#">
   <cc:Work>
    <dc:type rdf:resource="http://purl.org/dc/dcmitype/StillImage"/>
    <dc:date>2026-01-24T10:00:36.108266</dc:date>
    <dc:format>image/svg+xml</dc:format>
    <dc:creator>
     <cc:Agent>
      <dc:title>Matplotlib v3.10.8, https://matplotlib.org/</dc:title>
     </cc:Agent>
    </dc:creator>
   </cc:Work>
  </rdf:RDF>
 </metadata>
 <defs>
  <style type="text/css">*{stroke-linejoin: round; stroke-linecap: butt}</style>
 </defs>
 <g id="figure_1">
  <g id="patch_1">
   <path d="M 0 310.330023 
L 558 310.330023 
L 558 -0 
L 0 -0 
L 0 310.330023 
z
" style="fill: none"/>
  </g>
  <g id="axes_1">
   <g id="PatchCollection_1">
    <path d="M 25.363636 286.045864 
L 25.371378 284.71876 
L 25.513153 283.487702 
L 25.76657 282.222915 
L 26.230458 281.025166 
L 26.986568 279.717424 
L 28.019927 278.327281 
L 29.353048 276.898955 
L 30.605604 275.698217 
L 75.487881 235.363956 
L 77.612622 233.417371 
L 78.29747 232.539436 
L 78.83794 231.812315 
L 79.175951 231.064449 
L 79.483669 230.237921 
L 79.66553 229.624139 
L 79.789312 228.838798 
L 79.794659 227.687343 
L 79.637809 226.635541 
L 78.74488 223.708284 
L 74.901474 211.181733 
L 74.564446 209.749156 
L 74.422745 208.382318 
L 74.404809 207.107641 
L 74.524443 205.611869 
L 74.705802 204.523108 
L 75.027903 203.309394 
L 112.373109 101.457913 
L 113.483286 98.42239 
L 113.898369 97.501412 
L 114.274436 96.572072 
L 114.796575 95.666862 
L 115.476171 94.544111 
L 116.10409 93.616103 
L 117.052339 92.416914 
L 117.783053 91.668892 
L 118.507399 91.033636 
L 119.706882 90.107617 
L 120.853387 89.296503 
L 121.853642 88.641096 
L 138.011128 80.002418 
L 145.112456 76.189458 
L 146.087567 75.568087 
L 146.838113 74.977395 
L 147.371867 74.417125 
L 148.05283 73.603932 
L 148.558409 72.897309 
L 149.045557 72.166581 
L 149.524639 71.060718 
L 149.885538 70.161196 
L 150.105447 69.250763 
L 151.181691 63.332868 
L 151.384026 62.270374 
L 151.53523 61.318791 
L 151.811452 60.28116 
L 152.131982 59.47871 
L 152.609787 58.665984 
L 153.312794 57.588019 
L 154.291113 56.500953 
L 154.945097 55.940983 
L 155.918081 55.35948 
L 157.411079 54.638039 
L 159.425885 53.95346 
L 164.359577 52.46612 
L 174.968689 49.424551 
L 181.540828 47.652357 
L 185.695327 46.685697 
L 190.19153 45.834199 
L 196.818007 44.945583 
L 201.865616 44.322172 
L 205.679673 43.827546 
L 232.452264 40.15009 
L 239.517701 39.347888 
L 242.275849 38.975471 
L 244.358138 38.825319 
L 244.352403 38.82103 
L 247.840158 38.60954 
L 250.745327 38.498716 
L 253.983532 38.455558 
L 256.593633 38.511895 
L 258.903682 38.603263 
L 261.753078 38.713068 
L 264.084467 38.872919 
L 266.181517 39.029947 
L 271.417335 39.478536 
L 275.072798 39.727636 
L 277.615058 40.013611 
L 279.54956 40.302891 
L 327.744532 49.386198 
L 331.657344 50.13399 
L 333.635896 50.358643 
L 336.204061 50.478023 
L 417.8135 47.993746 
L 420.350961 47.909481 
L 422.657604 47.609976 
L 424.437603 47.327959 
L 426.357535 46.929841 
L 428.939814 46.270899 
L 431.329529 45.586505 
L 440.653632 42.479178 
L 443.51537 41.4814 
L 445.201709 40.801857 
L 446.443273 40.30239 
L 499.448051 18.100583 
L 504.981219 15.790831 
L 506.923049 15.072035 
L 508.787246 14.489551 
L 509.608276 14.324967 
L 510.529793 14.169519 
L 511.316614 14.10591 
L 511.980833 14.121257 
L 512.67007 14.135772 
L 513.41266 14.24835 
L 514.220697 14.446109 
L 514.852365 14.612296 
L 515.624949 14.873633 
L 516.157789 15.080545 
L 516.703968 15.311973 
L 517.290577 15.629415 
L 518.106079 16.051561 
L 518.683497 16.469147 
L 519.447063 17.11046 
L 520.092832 17.70049 
L 520.53431 18.172517 
L 520.874887 18.622941 
L 521.348434 19.306058 
L 521.743609 19.891944 
L 522.104575 20.578807 
L 522.493463 21.3521 
L 526.380362 29.528405 
L 530.723601 38.677222 
L 531.285493 39.891323 
L 531.761874 40.957783 
L 529.700471 43.070783 
L 529.413753 42.226734 
L 528.760274 40.713748 
L 519.93762 22.135079 
L 519.206604 20.927849 
L 518.496394 19.937083 
L 517.51814 18.913063 
L 516.552898 18.250149 
L 515.484933 17.673339 
L 514.281488 17.18276 
L 512.918923 16.898262 
L 511.64716 16.740463 
L 510.433968 16.780338 
L 509.335457 16.939413 
L 507.578595 17.494843 
L 491.856662 23.954706 
L 438.556258 46.637506 
L 435.920695 47.707844 
L 433.444544 48.560985 
L 430.360751 49.61887 
L 427.342335 50.385532 
L 424.51716 51.05218 
L 422.302464 51.470581 
L 420.331507 51.661288 
L 417.822206 52.001192 
L 411.254257 52.381169 
L 336.754024 54.402982 
L 334.566433 54.06256 
L 332.315674 53.626875 
L 275.144819 43.295005 
L 271.995561 42.806253 
L 267.633538 42.257703 
L 264.076926 41.914927 
L 259.881038 41.593068 
L 255.637458 41.456435 
L 251.940734 41.498732 
L 247.975304 41.670245 
L 243.880408 41.954835 
L 238.282731 42.487841 
L 229.770719 43.338484 
L 217.873277 44.961744 
L 192.233958 48.402111 
L 188.518409 49.020596 
L 184.383118 49.762419 
L 173.632908 52.537658 
L 158.63938 56.837833 
L 157.675548 57.193355 
L 156.76777 57.722023 
L 156.08841 58.275631 
L 155.335916 59.178344 
L 154.800351 60.052907 
L 154.481717 60.899321 
L 153.970485 62.916926 
L 152.825329 69.259143 
L 152.548294 70.570692 
L 152.13634 71.777131 
L 151.663022 72.907346 
L 151.195595 73.857444 
L 150.487745 74.836909 
L 149.680281 75.770735 
L 148.811453 76.628338 
L 147.783325 77.475498 
L 146.634145 78.281631 
L 139.740384 82.09735 
L 123.4071 90.844963 
L 122.666579 91.293622 
L 121.642734 91.981296 
L 120.714297 92.748608 
L 119.888348 93.424886 
L 118.94443 94.420547 
L 117.89593 95.680517 
L 117.148249 96.835475 
L 116.398032 98.165622 
L 115.843046 99.588114 
L 77.821956 203.749371 
L 77.235214 205.859114 
L 77.145929 207.31584 
L 77.214776 208.631077 
L 77.401572 210.055294 
L 77.950787 212.032998 
L 78.374782 213.244981 
L 81.004946 222.016793 
L 81.773821 224.403022 
L 82.07791 225.596257 
L 82.315968 226.643505 
L 82.440046 227.843227 
L 82.465665 228.806233 
L 82.406046 229.705855 
L 82.246213 230.549073 
L 81.946387 231.558832 
L 81.502926 232.49229 
L 80.929931 233.41463 
L 80.328902 234.342999 
L 79.583508 235.146498 
L 78.885949 235.764297 
L 56.967465 255.231251 
L 45.435574 265.403717 
L 36.794732 273.436004 
L 33.161113 276.933453 
L 31.416402 278.979835 
L 30.161359 280.61382 
L 29.6669 281.406703 
L 29.179732 282.39254 
L 28.843806 283.334409 
L 28.704521 284.176778 
L 28.641383 285.105753 
L 28.631593 286.069026 
L 28.726793 286.986835 
L 29.015152 288.16061 
L 29.385505 289.076461 
L 29.89613 289.950702 
L 31.056292 291.152468 
L 32.0242 291.903554 
L 33.134187 292.584932 
L 34.391422 293.03888 
L 35.940908 293.390823 
L 37.406877 293.447503 
L 38.593861 293.485876 
L 40.622633 293.147447 
L 87.576469 285.233272 
L 94.52785 284.492861 
L 96.370648 284.205603 
L 98.682242 283.759812 
L 100.977401 283.317553 
L 103.170402 282.880125 
L 109.629822 281.590052 
L 112.520879 281.133699 
L 116.50724 280.503806 
L 119.960389 279.852497 
L 124.03382 279.450793 
L 128.151852 279.139386 
L 132.244514 279.058203 
L 136.852278 279.041031 
L 140.815016 279.08683 
L 144.17736 279.262213 
L 146.822768 279.556577 
L 164.370766 282.242894 
L 185.70334 285.521508 
L 187.232199 285.681813 
L 188.759461 285.736105 
L 189.990791 285.705168 
L 191.077754 285.598936 
L 192.423865 285.309321 
L 193.762382 284.787357 
L 195.050072 284.075588 
L 196.430701 283.148212 
L 197.666299 282.176998 
L 198.630458 281.204154 
L 199.441404 280.21925 
L 200.301448 279.043687 
L 204.356579 270.999594 
L 205.537948 268.469427 
L 207.153233 264.590921 
L 208.842496 260.462523 
L 210.371772 256.383682 
L 211.079237 253.636431 
L 211.773106 250.530506 
L 212.240234 246.77144 
L 212.518204 243.223246 
L 212.6386 240.623598 
L 212.480665 238.020028 
L 212.251149 235.282969 
L 212.020993 233.366397 
L 211.570766 230.78217 
L 210.812314 227.865724 
L 210.241862 225.39795 
L 199.879475 185.186436 
L 199.617587 183.875506 
L 199.510913 182.671466 
L 199.465031 181.748313 
L 199.50734 180.64003 
L 199.672921 179.390195 
L 199.887038 178.423884 
L 200.111965 177.685308 
L 200.466173 176.714418 
L 201.06068 175.372298 
L 213.66052 154.277204 
L 214.358095 153.535018 
L 215.106988 152.873351 
L 215.717535 152.47304 
L 216.056628 152.261948 
L 217.03843 151.906411 
L 218.132128 151.607957 
L 218.987941 151.632475 
L 219.951325 151.632547 
L 221.204937 151.869696 
L 222.264774 152.386624 
L 232.218664 156.138481 
L 233.741521 156.465886 
L 234.94307 156.621392 
L 236.105486 156.751747 
L 237.478716 156.87031 
L 238.09285 156.90602 
L 248.858161 156.605387 
L 254.303814 156.467402 
L 265.157674 156.291983 
L 289.068171 154.777912 
L 297.006016 154.699057 
L 329.145278 153.68847 
L 341.529659 152.999068 
L 354.507445 152.328351 
L 355.218269 152.36609 
L 356.082216 152.430099 
L 357.015888 152.687412 
L 357.734691 153.046524 
L 358.249069 153.491301 
L 358.648581 154.113564 
L 359.169531 155.167974 
L 359.700426 156.525767 
L 360.287731 158.079732 
L 360.750726 159.188282 
L 361.050237 159.73486 
L 361.480802 160.114355 
L 362.005349 160.348632 
L 362.581059 160.433021 
L 363.167984 160.376121 
L 364.171057 159.924119 
L 379.085197 153.117209 
L 381.356166 152.103348 
L 387.760821 149.388269 
L 394.162807 147.10329 
L 399.525674 144.951499 
L 404.03242 142.667998 
L 408.661335 140.32451 
L 414.338536 137.048169 
L 420.096188 133.173461 
L 424.816362 129.719493 
L 430.623384 125.171136 
L 435.940441 120.614153 
L 442.764727 114.176348 
L 480.000311 75.197675 
L 483.295477 72.37887 
L 487.750626 68.958633 
L 489.331764 67.863074 
L 491.483239 66.657123 
L 526.47411 49.827467 
L 527.729431 49.192626 
L 528.640734 48.417815 
L 529.258504 47.529044 
L 529.665715 46.581111 
L 529.974411 45.640856 
L 530.016034 44.548997 
L 529.762567 43.343744 
L 529.715515 43.032594 
L 531.761874 40.957783 
L 531.864126 41.200161 
L 532.270516 42.310698 
L 532.557453 43.40565 
L 532.636364 44.30579 
L 532.632535 45.512935 
L 532.48873 46.609764 
L 532.170471 47.628488 
L 531.682435 48.66725 
L 530.872134 49.813933 
L 530.082719 50.686249 
L 529.318024 51.331968 
L 528.508365 51.919456 
L 527.809123 52.320567 
L 494.897449 68.154229 
L 491.439271 70.013888 
L 488.521548 72.066527 
L 484.99829 74.677229 
L 482.213149 77.091949 
L 479.950234 79.171973 
L 448.579698 111.975823 
L 444.522225 116.132859 
L 440.961948 119.5998 
L 437.334139 122.897157 
L 431.401964 127.95038 
L 424.277965 133.221128 
L 420.384526 136.09309 
L 416.106346 139.073296 
L 413.005869 140.818125 
L 407.67324 143.714152 
L 402.433321 146.421562 
L 400.745208 147.225303 
L 398.419805 148.257127 
L 392.658227 150.544454 
L 389.540219 151.684686 
L 387.504234 152.616495 
L 366.252938 162.247725 
L 364.556651 163.005646 
L 363.537219 163.361661 
L 362.731888 163.443789 
L 361.880926 163.301883 
L 360.770352 163.068469 
L 359.708072 162.511042 
L 358.8859 161.888525 
L 358.24062 161.12041 
L 357.752604 160.191461 
L 356.494788 156.850785 
L 356.126847 156.059877 
L 355.873338 155.68853 
L 355.562397 155.355282 
L 355.332954 155.17717 
L 355.029468 155.070197 
L 354.598449 154.937717 
L 354.197928 154.917055 
L 235.573293 159.49649 
L 234.359083 159.416921 
L 233.564483 159.307484 
L 232.641459 159.087104 
L 231.838323 158.858191 
L 221.323449 154.788682 
L 220.419842 154.499103 
L 219.619833 154.404596 
L 218.776846 154.471435 
L 217.944943 154.597341 
L 217.34995 154.798719 
L 216.751354 155.096345 
L 216.188475 155.595446 
L 215.774587 156.099149 
L 203.801049 175.927774 
L 203.086641 177.28254 
L 202.531745 178.653639 
L 202.303857 179.659597 
L 202.192685 180.553405 
L 202.094889 181.634515 
L 202.09746 182.409492 
L 202.209785 183.220103 
L 202.447187 184.221599 
L 212.152634 222.165163 
L 213.387162 226.955144 
L 214.201162 230.683463 
L 214.799446 233.911875 
L 215.067551 236.266471 
L 215.227304 238.591796 
L 215.281983 240.911954 
L 215.251907 243.111668 
L 215.067422 246.036981 
L 214.464024 250.190484 
L 214.062515 251.935495 
L 213.716638 253.577954 
L 213.332114 255.120088 
L 212.868326 256.685791 
L 212.387308 258.136199 
L 205.282833 275.563968 
L 204.358644 277.754795 
L 203.37041 279.748418 
L 202.64471 281.000157 
L 201.886917 282.060277 
L 200.886174 283.252979 
L 199.704064 284.446264 
L 198.456264 285.488014 
L 197.215026 286.286171 
L 195.63076 287.161845 
L 194.523358 287.62806 
L 193.232557 288.104775 
L 191.844741 288.404878 
L 189.801529 288.551246 
L 188.328182 288.549026 
L 186.768962 288.340118 
L 150.96046 282.827071 
L 148.702835 282.494604 
L 146.002326 282.188655 
L 144.225872 282.085914 
L 141.678693 281.951727 
L 137.214644 281.863113 
L 133.458026 281.898224 
L 130.398833 281.91688 
L 126.438252 282.103243 
L 123.692492 282.381025 
L 121.672605 282.5618 
L 62.781967 291.930622 
L 38.415673 296.038375 
L 37.090391 296.163321 
L 35.561605 296.224113 
L 34.683169 296.170328 
L 33.892972 296.103435 
L 32.651941 295.752274 
L 31.973767 295.472493 
L 30.741288 294.783547 
L 29.566972 293.994005 
L 28.668542 293.196937 
L 27.918098 292.403907 
L 27.135636 291.364649 
L 26.470439 290.145385 
L 25.947207 288.839982 
L 25.526466 287.518114 
z
" clip-path="url(#pad2f9c7b72)"/>
   </g>
  </g>
 </g>
 <defs>
  <clipPath id="pad2f9c7b72">
   <rect x="0" y="-0" width="558" height="310.330023"/>
  </clipPath>
 </defs>
</svg>
