<?xml version="1.0" encoding="utf-8" standalone="no"?>
<!DOCTYPE svg PUBLIC "-//W3C//DTD SVG 1.1//EN"
  "http://www.w3.org/Graphics/SVG/1.1/DTD/svg11.dtd">
<svg xmlns:xlink="http://www.w3.org/1999/xlink" width="347.852862pt" height="554.4pt" viewBox="0 0 347.852862 554.4" xmlns="http://www.w3.org/2000/svg" version="1.1">
 <metadata>
  <rdf:RDF xmlns:dc="http://purl.org/dc/elements/1.1/" xmlns:cc="http://creativecommons.org/ns#" xmlns:rdf="http://www.w3.org/1999/02/22-rdf-syntax-ns#">
   <cc:Work>
    <dc:type rdf:resource="http://purl.org/dc/dcmitype/StillImage"/>
    <dc:date>2026-01-24T13:27:50.305279</dc:date>
    <dc:format>image/svg+xml</dc:format>
    <dc:creator>
     <cc:Agent>
      <dc:title>Matplotlib v3.10.8, https://matplotlib.org/</dc:title>
     </cc:Agent>
    </dc:creator>
   </cc:Work>
  </rdf:RDF>
 </metadata>
 <defs>
  <style type="text/css">*{stroke-linejoin: round; stroke-linecap: butt}</style>
 </defs>
 <g id="figure_1">
  <g id="patch_1">
   <path d="M 0 554.4 
L 347.852862 554.4 
L 347.852862 0 
L 0 0 
L 0 554.4 
z
" style="fill: none"/>
  </g>
  <g id="axes_1">
   <g id="PatchCollection_1">
    <path d="M 15.811494 465.656229 
L 15.82243 465.397094 
L 16.11902 462.285749 
L 16.144766 462.095104 
L 16.185364 461.907062 
L 16.960593 458.89402 
L 17.002828 458.74861 
L 17.96703 455.774717 
L 17.970222 455.764945 
L 18.946355 452.796687 
L 19.916436 449.833201 
L 20.871569 446.863129 
L 21.828655 443.886978 
L 21.856815 443.804467 
L 22.916709 440.870502 
L 23.038685 440.58921 
L 24.459597 437.803371 
L 25.880502 435.017539 
L 27.3014 432.231711 
L 27.373657 432.100146 
L 28.960324 429.409522 
L 29.015956 429.319664 
L 30.719396 426.69611 
L 32.422827 424.072561 
L 32.454588 424.024872 
L 34.217065 421.444333 
L 34.348515 421.269189 
L 36.336512 418.852921 
L 38.324499 416.436657 
L 40.312479 414.020394 
L 42.300451 411.604132 
L 42.385965 411.50565 
L 44.498801 409.199138 
L 44.528111 409.167699 
L 46.682112 406.897378 
L 48.836105 404.627058 
L 50.990089 402.356739 
L 53.144065 400.08642 
L 55.298034 397.816101 
L 57.451996 395.545781 
L 57.617431 395.386973 
L 59.972594 393.3287 
L 60.004224 393.301527 
L 62.396015 391.281869 
L 64.787803 389.262207 
L 64.83036 389.227083 
L 67.264011 387.264061 
L 67.487069 387.103876 
L 70.128839 385.422404 
L 72.770598 383.740932 
L 72.80079 383.722021 
L 75.466129 382.079403 
L 75.535487 382.038215 
L 78.254215 380.483579 
L 80.972932 378.92894 
L 83.691643 377.374298 
L 86.410347 375.819651 
L 89.129046 374.265 
L 91.847738 372.710344 
L 94.566423 371.155685 
L 97.285103 369.601021 
L 100.003776 368.046352 
L 102.722443 366.49168 
L 105.441104 364.937003 
L 108.159758 363.382322 
L 110.878406 361.827636 
L 113.516407 360.319063 
L 116.029107 358.617933 
L 118.531404 356.913126 
L 120.866522 355.027498 
L 123.188381 353.06783 
L 125.383625 351.00504 
L 127.506667 348.844787 
L 129.502384 346.634573 
L 131.348287 344.244379 
L 133.188953 341.803046 
L 134.920133 339.275081 
L 136.571357 336.828934 
L 137.879671 334.173902 
L 139.261827 331.369011 
L 140.626874 328.598832 
L 141.883414 325.832168 
L 143.047261 322.981642 
L 144.228835 320.08769 
L 145.40713 317.197956 
L 146.573525 314.302821 
L 147.741833 311.40293 
L 148.910134 308.503045 
L 150.078431 305.603164 
L 151.246722 302.703289 
L 152.415007 299.803419 
L 153.570605 296.935032 
L 154.626355 294.089967 
L 155.520989 291.296987 
L 156.095673 288.433703 
L 156.519226 285.599159 
L 156.489398 282.672316 
L 156.453251 279.801686 
L 155.844193 277.024055 
L 155.156645 274.229837 
L 153.989575 271.55727 
L 152.738587 268.692525 
L 151.487605 265.827787 
L 150.236627 262.963054 
L 148.985655 260.098326 
L 148.982079 260.090096 
L 147.7416 257.220843 
L 146.501455 254.350986 
L 145.261484 251.481526 
L 144.021519 248.612072 
L 142.781559 245.742623 
L 142.77891 245.73647 
L 141.546808 242.863701 
L 141.539442 242.846344 
L 140.329451 239.964211 
L 139.119464 237.082082 
L 137.909482 234.199958 
L 136.699505 231.31784 
L 135.489533 228.435728 
L 134.279566 225.553621 
L 134.261347 225.509 
L 133.109232 222.606281 
L 133.038919 222.40375 
L 132.143847 219.409413 
L 131.248778 216.415081 
L 131.227024 216.337711 
L 130.43074 213.316716 
L 130.419633 213.272947 
L 129.678853 210.236974 
L 128.938077 207.201006 
L 128.914979 207.0965 
L 128.307587 204.032796 
L 128.297207 203.977075 
L 127.76046 200.898683 
L 127.223714 197.820298 
L 127.212622 197.750812 
L 126.764365 194.658493 
L 126.763399 194.65176 
L 126.323697 191.558101 
L 126.317341 191.50997 
L 125.938967 188.408671 
L 125.935154 188.375548 
L 125.5989 185.269005 
L 125.262646 182.16247 
L 124.926394 179.055941 
L 124.590143 175.949421 
L 124.253893 172.842907 
L 123.917644 169.736402 
L 123.581396 166.629903 
L 123.245149 163.523412 
L 122.908904 160.416928 
L 122.572659 157.310452 
L 122.558406 157.044554 
L 122.573041 156.778676 
L 122.616391 156.515948 
L 123.274255 153.543288 
L 123.337101 153.313019 
L 123.422017 153.089942 
L 123.528198 152.876168 
L 123.654642 152.673718 
L 123.800151 152.484507 
L 123.963351 152.310324 
L 124.142697 152.152816 
L 124.336494 152.013472 
L 126.842418 150.390472 
L 127.063488 150.263091 
L 127.296587 150.159347 
L 127.539196 150.080361 
L 127.788693 150.026987 
L 128.042383 149.9998 
L 128.297525 149.999095 
L 131.337133 150.148866 
L 134.210959 150.152215 
L 136.392427 149.808887 
L 137.291483 149.015856 
L 137.295027 147.713517 
L 136.20995 145.60087 
L 134.550125 143.119259 
L 132.81173 140.520169 
L 131.073341 137.921082 
L 129.334959 135.321998 
L 127.596583 132.722918 
L 125.858215 130.123841 
L 124.119853 127.524767 
L 124.094701 127.48639 
L 122.405498 124.855697 
L 122.389684 124.830738 
L 120.732135 122.179685 
L 119.074592 119.528633 
L 117.417056 116.877585 
L 115.759525 114.226541 
L 114.102002 111.5755 
L 118.264446 108.972994 
L 119.921968 111.624032 
L 121.579495 114.275072 
L 123.237029 116.926115 
L 124.894569 119.577162 
L 126.544283 122.215686 
L 128.213107 124.814642 
L 129.938711 127.394642 
L 131.677077 129.993714 
L 133.415449 132.592789 
L 135.153827 135.191868 
L 136.892213 137.79095 
L 138.630605 140.390035 
L 140.369004 142.989124 
L 140.512153 143.232326 
L 141.934566 146.001766 
L 142.031494 146.214935 
L 142.107667 146.43637 
L 142.162392 146.664057 
L 142.195171 146.895922 
L 142.205705 147.129856 
L 142.197532 150.133083 
L 142.186088 150.363237 
L 142.153111 150.591304 
L 142.098892 150.815272 
L 142.023908 151.03317 
L 141.928821 151.243075 
L 141.814467 151.443137 
L 141.681856 151.631595 
L 141.532156 151.806785 
L 141.366687 151.967165 
L 139.103771 153.963216 
L 138.922927 154.108145 
L 138.72922 154.235371 
L 138.524378 154.343762 
L 138.310227 154.43235 
L 138.088674 154.500346 
L 137.861697 154.547144 
L 134.783116 155.031664 
L 134.591469 155.054148 
L 134.398648 155.061508 
L 131.272408 155.057865 
L 131.154472 155.054892 
L 128.846599 154.941176 
L 127.849882 155.586715 
L 127.496611 157.183024 
L 127.789468 159.888657 
L 128.125713 162.99514 
L 128.46196 166.10163 
L 128.798208 169.208128 
L 129.134457 172.314634 
L 129.470707 175.421147 
L 129.806958 178.527667 
L 130.14321 181.634195 
L 130.479463 184.74073 
L 130.813924 187.830698 
L 131.187339 190.891351 
L 131.623146 193.957609 
L 132.065868 197.01174 
L 132.596569 200.055462 
L 133.128448 203.105933 
L 133.71992 206.089332 
L 134.448008 209.073298 
L 135.183435 212.087335 
L 135.96372 215.047633 
L 136.847278 218.003457 
L 137.71162 220.894991 
L 138.815261 223.675582 
L 140.015898 226.535464 
L 141.225869 229.417575 
L 142.435844 232.299689 
L 143.645825 235.181809 
L 144.85581 238.063934 
L 146.062151 240.937373 
L 147.289217 243.7984 
L 148.527848 246.664772 
L 149.767812 249.534223 
L 151.007781 252.403679 
L 152.24767 255.272944 
L 153.486283 258.137882 
L 154.73546 260.998497 
L 155.986435 263.863226 
L 157.237416 266.727961 
L 158.488403 269.592702 
L 159.739394 272.457447 
L 159.814847 272.652496 
L 159.873422 272.85326 
L 160.618529 275.881396 
L 160.632661 275.942147 
L 161.302014 278.994757 
L 161.342981 279.240721 
L 161.358781 279.489573 
L 161.398117 282.613451 
L 161.398184 282.619343 
L 161.430029 285.744076 
L 161.424304 285.938486 
L 161.403204 286.131833 
L 160.941815 289.219586 
L 160.920773 289.339854 
L 160.307017 292.397813 
L 160.23802 292.663553 
L 159.284467 295.640472 
L 159.248126 295.745655 
L 158.161207 298.674716 
L 158.136718 298.738011 
L 156.968438 301.637879 
L 155.80015 304.537754 
L 154.631858 307.437634 
L 153.463559 310.33752 
L 152.295256 313.23741 
L 151.126946 316.137305 
L 149.958631 319.037205 
L 149.954774 319.046722 
L 148.774326 321.941735 
L 147.592109 324.837264 
L 146.410314 327.731751 
L 146.372731 327.818941 
L 145.080556 330.664065 
L 145.047453 330.734002 
L 143.665302 333.538892 
L 142.283143 336.343789 
L 140.900978 339.14869 
L 140.733653 339.437033 
L 138.98436 342.028462 
L 138.975128 342.042039 
L 137.207703 344.622931 
L 137.142422 344.713748 
L 135.259526 347.211092 
L 135.242285 347.233687 
L 133.330031 349.709796 
L 133.209141 349.854485 
L 131.115429 352.173226 
L 131.044295 352.248735 
L 128.850659 354.48082 
L 128.780844 354.549087 
L 126.502335 356.690118 
L 126.40466 356.777117 
L 124.012449 358.796162 
L 123.971372 358.830075 
L 121.537919 360.79511 
L 121.377863 360.913951 
L 118.790149 362.676952 
L 118.784196 362.680995 
L 116.191591 364.436221 
L 116.034024 364.534417 
L 113.315377 366.089109 
L 110.59672 367.6438 
L 107.878056 369.198486 
L 105.159386 370.753168 
L 102.44071 372.307846 
L 99.722027 373.86252 
L 97.003339 375.417189 
L 94.284644 376.971854 
L 91.565942 378.526515 
L 88.847235 380.081172 
L 86.128521 381.635824 
L 83.409801 383.190472 
L 80.691075 384.745115 
L 78.007359 386.279731 
L 75.391525 387.89184 
L 72.764788 389.56375 
L 70.239031 391.171381 
L 67.933897 393.030738 
L 65.56319 395.0326 
L 63.187322 397.038812 
L 60.93429 399.007829 
L 58.85933 401.19488 
L 56.705355 403.465205 
L 54.551373 405.735531 
L 52.397383 408.005856 
L 50.243385 410.276182 
L 48.104172 412.530916 
L 46.049919 414.773474 
L 44.103392 417.139362 
L 42.115407 419.555631 
L 40.127415 421.971901 
L 38.20905 424.303535 
L 36.524548 426.769908 
L 34.836717 429.36943 
L 33.162058 431.948657 
L 31.640379 434.529075 
L 30.253595 437.248018 
L 28.832688 440.033855 
L 27.481564 442.682868 
L 26.48867 445.431366 
L 25.544932 448.366014 
L 24.58784 451.342176 
L 24.583893 451.354341 
L 23.611301 454.325496 
L 23.610256 454.328681 
L 22.635205 457.293648 
L 21.695949 460.190597 
L 20.98764 462.943545 
L 20.721672 465.733663 
L 20.752071 468.580269 
L 21.089963 471.349731 
L 21.85433 474.039522 
L 22.920989 476.638484 
L 24.343826 479.065778 
L 26.070846 481.426002 
L 27.832514 483.537799 
L 30.063244 485.171133 
L 32.621058 486.888771 
L 35.22002 488.634032 
L 37.817006 490.376932 
L 40.4185 492.11375 
L 43.022463 493.852211 
L 45.626434 495.59067 
L 48.230412 497.329126 
L 50.834397 499.067579 
L 53.287885 500.705552 
L 55.664492 501.828682 
L 58.08636 502.294058 
L 60.594456 502.150864 
L 62.989271 501.425265 
L 65.111248 500.105371 
L 66.869551 498.293784 
L 68.296469 495.85041 
L 69.873831 493.149418 
L 71.451184 490.448431 
L 73.028532 487.747444 
L 74.605873 485.046462 
L 76.183207 482.345483 
L 77.760534 479.644507 
L 79.337854 476.943534 
L 80.915168 474.242565 
L 82.492474 471.541599 
L 84.069774 468.840636 
L 85.647067 466.139677 
L 87.224353 463.43872 
L 88.801632 460.737767 
L 88.871304 460.625511 
L 90.591592 458.013397 
L 90.621715 457.968733 
L 92.39882 455.395142 
L 92.495307 455.264835 
L 94.431255 452.823259 
L 94.565398 452.667894 
L 94.712053 452.524281 
L 94.870195 452.393423 
L 97.363803 450.499958 
L 97.567182 450.361042 
L 97.783458 450.243208 
L 100.577907 448.897897 
L 100.900247 448.769909 
L 103.876518 447.825511 
L 104.063986 447.774102 
L 104.254935 447.737688 
L 107.354016 447.273026 
L 107.580875 447.249725 
L 107.808918 447.247579 
L 110.916312 447.362797 
L 111.210698 447.391547 
L 114.29335 447.881565 
L 114.537993 447.933352 
L 114.776097 448.009761 
L 117.706167 449.117621 
L 118.012189 449.258015 
L 120.755619 450.752357 
L 120.830439 450.794829 
L 123.449117 452.342613 
L 126.031448 453.625212 
L 128.635322 454.540089 
L 131.266379 454.990553 
L 133.936035 454.885993 
L 136.652781 454.343712 
L 139.211475 453.507476 
L 141.517753 452.077648 
L 143.687242 450.409769 
L 145.425414 448.428527 
L 146.803635 445.990145 
L 148.118706 443.382372 
L 149.127649 440.585402 
L 150.177707 437.64477 
L 151.229091 434.700417 
L 152.28047 431.756069 
L 153.331844 428.811727 
L 154.383212 425.867391 
L 155.434575 422.923059 
L 156.485933 419.978734 
L 157.537286 417.034414 
L 158.588634 414.090099 
L 159.639446 411.147274 
L 160.686369 408.20341 
L 161.733063 405.2578 
L 162.779857 402.311902 
L 163.826645 399.366009 
L 164.873429 396.420122 
L 165.920207 393.474241 
L 166.96698 390.528365 
L 168.013748 387.582494 
L 169.060511 384.636629 
L 170.107268 381.69077 
L 171.154021 378.744915 
L 172.200768 375.799067 
L 172.229507 375.722278 
L 173.372766 372.816319 
L 173.442995 372.655028 
L 174.79327 369.834628 
L 176.143537 367.014234 
L 176.262806 366.79458 
L 177.89179 364.12795 
L 177.915414 364.090057 
L 179.594266 361.450945 
L 179.751539 361.231397 
L 179.931979 361.030456 
L 182.147935 358.820432 
L 184.364498 356.610446 
L 184.57893 356.420279 
L 187.033108 354.487588 
L 187.124026 354.419339 
L 189.668864 352.59964 
L 189.852785 352.480171 
L 190.046637 352.377596 
L 192.877915 351.037775 
L 192.920719 351.01802 
L 195.774404 349.734084 
L 196.015674 349.640491 
L 198.99223 348.662977 
L 199.137548 348.620174 
L 202.159149 347.830648 
L 202.410383 347.778856 
L 205.508208 347.307417 
L 205.718842 347.284611 
L 208.833394 347.082872 
L 209.059212 347.078658 
L 212.191598 347.164401 
L 215.323973 347.250135 
L 218.456355 347.335863 
L 221.588742 347.421582 
L 221.715646 347.428346 
L 224.83606 347.675812 
L 224.946959 347.687147 
L 228.054266 348.076208 
L 228.312307 348.122629 
L 228.563926 348.196309 
L 231.51882 349.235897 
L 231.731913 349.322284 
L 234.561701 350.626965 
L 234.794247 350.74969 
L 237.481084 352.357281 
L 237.655378 352.471894 
L 237.819311 352.600893 
L 240.190061 354.635357 
L 240.298582 354.734273 
L 242.541612 356.905092 
L 242.750304 357.134305 
L 244.705967 359.575676 
L 244.842649 359.763941 
L 244.960894 359.9643 
L 246.417767 362.723876 
L 246.537797 362.987945 
L 247.654492 365.888539 
L 247.747561 366.185038 
L 248.492811 369.219792 
L 248.513011 369.30923 
L 249.144479 372.370107 
L 249.77595 375.430991 
L 250.407423 378.491882 
L 251.038899 381.552781 
L 251.670378 384.613686 
L 252.301859 387.674598 
L 252.927583 390.707605 
L 253.622751 393.721736 
L 254.333252 396.761691 
L 255.044572 399.805149 
L 255.755895 402.848615 
L 256.467222 405.892088 
L 257.178551 408.935567 
L 257.889883 411.979054 
L 258.601218 415.022547 
L 259.312555 418.066047 
L 260.023896 421.109555 
L 260.735239 424.153069 
L 261.44489 427.189335 
L 262.15626 430.151694 
L 263.040059 433.075844 
L 263.944403 436.067965 
L 264.848752 439.060093 
L 265.729218 441.973198 
L 266.79963 444.810461 
L 267.923791 447.716556 
L 269.051649 450.632204 
L 270.179512 453.547857 
L 271.30738 456.463516 
L 272.435252 459.379181 
L 273.563129 462.294852 
L 274.691011 465.210529 
L 275.818897 468.126212 
L 276.946788 471.0419 
L 277.017347 471.252046 
L 277.871185 474.235248 
L 277.920411 474.440093 
L 277.951889 474.648405 
L 278.285436 477.752387 
L 278.298859 477.959152 
L 278.294795 478.166312 
L 278.273274 478.372391 
L 277.8177 481.464679 
L 277.771052 481.700528 
L 277.701555 481.930682 
L 277.609874 482.152933 
L 276.280203 484.975599 
L 276.175742 485.173428 
L 276.053704 485.360924 
L 275.915101 485.536529 
L 273.872429 487.895028 
L 273.721132 488.054667 
L 273.556151 488.200121 
L 271.133585 490.1502 
L 270.964407 490.274836 
L 268.365952 492.022653 
L 265.767487 493.77047 
L 263.169015 495.518283 
L 260.570536 497.266094 
L 257.97205 499.0139 
L 255.373557 500.761704 
L 252.775058 502.509504 
L 250.176836 504.257109 
L 247.710115 505.917266 
L 245.730191 507.65674 
L 244.348927 509.779362 
L 243.352963 512.168511 
L 242.982946 514.556255 
L 243.328587 517.046383 
L 244.145442 519.406497 
L 245.582036 521.345512 
L 247.518891 522.846023 
L 249.806567 523.833259 
L 252.272965 524.27336 
L 254.633777 524.082489 
L 256.900438 523.024442 
L 259.27942 521.428276 
L 261.732915 519.588272 
L 264.237975 517.709589 
L 266.743024 515.830906 
L 269.248067 513.95222 
L 271.753102 512.073531 
L 274.258131 510.19484 
L 276.763152 508.316145 
L 279.268166 506.437449 
L 281.773173 504.55875 
L 284.278173 502.680048 
L 286.783166 500.801343 
L 289.288151 498.922636 
L 291.793129 497.043927 
L 294.298102 495.165214 
L 296.803066 493.286499 
L 299.308023 491.407781 
L 301.812973 489.529061 
L 304.317916 487.650338 
L 306.822852 485.771613 
L 309.327781 483.892885 
L 311.832703 482.014154 
L 314.264268 480.190435 
L 316.403766 478.3208 
L 318.161096 476.202595 
L 319.508161 474.100304 
L 319.954766 471.694797 
L 320.013487 468.986734 
L 319.607457 466.261688 
L 318.838137 463.374949 
L 318.033216 460.354619 
L 317.228298 457.334296 
L 316.423384 454.31398 
L 315.618472 451.293671 
L 314.813565 448.273369 
L 314.00866 445.253073 
L 313.964869 445.056743 
L 313.9373 444.857488 
L 313.636241 441.747246 
L 313.624844 441.521225 
L 313.634313 441.295115 
L 313.664567 441.070838 
L 314.217974 438.03312 
L 314.272192 437.800405 
L 314.348781 437.574064 
L 315.48615 434.684417 
L 315.571403 434.492375 
L 315.672767 434.308327 
L 315.789501 434.133624 
L 317.621814 431.630377 
L 317.757739 431.460952 
L 317.90811 431.304207 
L 318.071751 431.161369 
L 320.49614 429.227326 
L 320.734269 429.059478 
L 323.182936 427.542645 
L 325.085807 425.759104 
L 326.446154 423.7379 
L 327.075446 421.468356 
L 327.128161 418.925802 
L 326.637111 416.26648 
L 325.724208 413.444782 
L 324.762014 410.47072 
L 323.799823 407.496663 
L 322.837636 404.522613 
L 321.875453 401.548569 
L 320.913943 398.576598 
L 319.950174 395.615544 
L 318.962413 392.660065 
L 317.971591 389.695424 
L 316.980774 386.730789 
L 315.989961 383.766161 
L 314.999153 380.801539 
L 314.008348 377.836924 
L 313.017547 374.872315 
L 312.026751 371.907711 
L 311.035958 368.943115 
L 310.04517 365.978524 
L 309.054386 363.01394 
L 308.063606 360.049362 
L 307.07283 357.084791 
L 306.082058 354.120225 
L 305.091291 351.155666 
L 304.100527 348.191114 
L 303.109768 345.226567 
L 302.119013 342.262027 
L 301.128261 339.297493 
L 300.137514 336.332966 
L 299.146771 333.368444 
L 298.156033 330.403929 
L 297.165298 327.439421 
L 296.174567 324.474918 
L 295.183841 321.510422 
L 294.193119 318.545932 
L 293.2024 315.581449 
L 292.211686 312.616971 
L 291.220976 309.6525 
L 291.219821 309.649035 
L 290.23353 306.68311 
L 290.232607 306.680328 
L 289.249861 303.713237 
L 288.26712 300.74615 
L 287.284382 297.77907 
L 286.301649 294.811997 
L 285.318919 291.844929 
L 284.336194 288.877868 
L 283.353473 285.910814 
L 282.370756 282.943765 
L 281.388043 279.976723 
L 280.405334 277.009687 
L 279.422629 274.042658 
L 278.439928 271.075634 
L 277.457231 268.108618 
L 276.474539 265.141607 
L 275.49185 262.174603 
L 274.509166 259.207605 
L 273.526485 256.240613 
L 272.543918 253.273955 
L 271.562357 250.313126 
L 270.566603 247.356659 
L 269.568987 244.394662 
L 268.604405 241.530737 
L 267.408314 238.772265 
L 266.160479 235.983773 
L 264.783865 233.253378 
L 263.357979 230.48757 
L 261.988394 227.849487 
L 260.305294 225.393548 
L 258.537489 222.814003 
L 256.769691 220.234461 
L 255.001899 217.654923 
L 253.234115 215.075387 
L 251.466337 212.495855 
L 249.698566 209.916325 
L 247.930802 207.336799 
L 246.164141 204.753814 
L 244.398802 202.172537 
L 242.633523 199.591342 
L 240.868251 197.01015 
L 239.102986 194.428961 
L 237.337728 191.847776 
L 235.572476 189.266593 
L 233.807232 186.685414 
L 232.041994 184.104238 
L 230.276763 181.523065 
L 228.511539 178.941896 
L 226.746322 176.360729 
L 226.723008 176.326008 
L 225.002767 173.716264 
L 224.943492 173.621731 
L 223.34319 170.93576 
L 223.231836 170.726499 
L 221.901244 167.905378 
L 221.782614 167.603669 
L 220.836588 164.635437 
L 220.77367 164.397344 
L 220.128293 161.341944 
L 220.107035 161.228081 
L 219.606216 158.143755 
L 219.107682 155.073507 
L 218.600076 152.161598 
L 217.746227 149.367899 
L 216.776494 146.613597 
L 215.502728 144.025887 
L 214.00214 141.495759 
L 212.358157 139.100054 
L 210.504185 136.967384 
L 208.427886 135.070647 
L 206.063082 133.461192 
L 203.434923 131.911712 
L 200.741636 130.323828 
L 198.057668 128.75328 
L 195.348849 127.217463 
L 195.238795 127.151202 
L 192.610636 125.473596 
L 192.459322 125.368823 
L 192.316285 125.253008 
L 189.960009 123.194221 
L 189.772356 123.011725 
L 187.650122 120.715237 
L 187.638695 120.702786 
L 185.531592 118.390938 
L 183.424493 116.079089 
L 181.317402 113.767241 
L 179.210319 111.455394 
L 177.103243 109.143548 
L 174.996174 106.831703 
L 172.889113 104.51986 
L 170.782059 102.208017 
L 168.675013 99.896176 
L 166.567974 97.584336 
L 164.460943 95.272498 
L 162.353919 92.96066 
L 160.246903 90.648824 
L 158.139894 88.336989 
L 156.032892 86.025155 
L 153.925898 83.713322 
L 151.818912 81.40149 
L 149.711933 79.08966 
L 147.604961 76.77783 
L 145.525811 74.496521 
L 143.38047 72.296043 
L 141.182115 70.088925 
L 138.975801 67.873807 
L 136.879474 65.775424 
L 134.525872 63.964995 
L 132.045438 62.056998 
L 129.565013 60.148999 
L 127.133283 58.278451 
L 124.620553 56.538474 
L 122.04048 54.78669 
L 119.451088 53.028573 
L 116.897611 51.294833 
L 114.339187 49.686863 
L 111.662022 48.187634 
L 108.930645 46.658039 
L 106.242892 45.152868 
L 103.568584 43.795192 
L 100.76386 42.587536 
L 97.887894 41.349197 
L 95.011935 40.110854 
L 92.135981 38.872506 
L 89.260034 37.634153 
L 86.384092 36.395795 
L 83.508156 35.157432 
L 83.487082 35.148241 
L 80.623066 33.883081 
L 80.601682 33.873512 
L 77.749805 32.581045 
L 74.944254 31.309566 
L 72.450926 30.301891 
L 70.717241 30.169873 
L 69.976148 30.709989 
L 69.906274 31.744564 
L 71.098155 33.73433 
L 72.747087 36.36004 
L 74.409772 39.007643 
L 76.072464 41.655249 
L 77.735162 44.30286 
L 79.397867 46.950473 
L 81.060578 49.598091 
L 82.723296 52.245712 
L 84.386021 54.893337 
L 86.048752 57.540966 
L 87.71149 60.188598 
L 89.374234 62.836234 
L 91.036985 65.483874 
L 92.699742 68.131517 
L 94.362506 70.779164 
L 96.025277 73.426815 
L 97.688054 76.07447 
L 99.350837 78.722128 
L 99.353462 78.726316 
L 100.032153 79.811847 
L 101.689602 82.462843 
L 103.347057 85.113841 
L 105.004519 87.764844 
L 106.661987 90.41585 
L 108.319462 93.066859 
L 109.976943 95.717873 
L 111.634431 98.36889 
L 113.291925 101.019911 
L 114.949426 103.670936 
L 116.605309 106.319772 
L 118.261107 108.96846 
L 114.098482 111.570678 
L 112.442682 108.921985 
L 110.786929 106.273357 
L 109.129471 103.6224 
L 107.471973 100.971375 
L 105.814483 98.320353 
L 104.156998 95.669334 
L 102.499521 93.01832 
L 100.84205 90.367309 
L 99.184585 87.716302 
L 97.527127 85.065298 
L 95.869676 82.414299 
L 95.192293 81.330861 
L 93.530822 78.685293 
L 91.868042 76.037634 
L 90.205268 73.389978 
L 88.542501 70.742326 
L 86.879741 68.094678 
L 85.216987 65.447034 
L 83.55424 62.799393 
L 81.891499 60.151756 
L 80.228765 57.504122 
L 78.566037 54.856493 
L 76.903316 52.208867 
L 75.240602 49.561244 
L 73.577894 46.913626 
L 71.915193 44.266011 
L 70.252498 41.6184 
L 68.58981 38.970792 
L 66.927129 36.323188 
L 66.900097 36.279121 
L 65.299837 33.607591 
L 65.183197 33.388436 
L 65.089292 33.158619 
L 65.019082 32.920492 
L 64.973285 32.676491 
L 64.95237 32.429111 
L 64.956551 32.180885 
L 65.155452 29.23589 
L 65.183008 28.99934 
L 65.233358 28.766575 
L 65.306028 28.539784 
L 65.400334 28.321104 
L 65.515389 28.112591 
L 65.650109 27.916211 
L 65.803226 27.73381 
L 65.973299 27.567106 
L 66.158727 27.417669 
L 68.556484 25.670159 
L 68.763495 25.534714 
L 68.983087 25.420794 
L 69.213031 25.329557 
L 69.450992 25.261928 
L 69.694551 25.218596 
L 69.941234 25.2 
L 70.188537 25.206329 
L 73.203676 25.435929 
L 73.453586 25.467927 
L 73.698899 25.525376 
L 73.93703 25.607669 
L 76.830857 26.777205 
L 76.924336 26.817257 
L 79.776206 28.109728 
L 82.617409 29.397358 
L 85.460196 30.65314 
L 88.325569 31.886954 
L 91.201501 33.125308 
L 94.077439 34.363657 
L 96.953383 35.602001 
L 99.829332 36.84034 
L 102.705288 38.078674 
L 105.581249 39.317003 
L 105.721654 39.382791 
L 108.509703 40.79821 
L 108.597899 40.845267 
L 111.329266 42.374864 
L 114.060634 43.904454 
L 116.79201 45.43404 
L 116.898834 45.497466 
L 119.546613 47.161596 
L 119.619268 47.209072 
L 122.208649 48.967189 
L 124.798033 50.725302 
L 127.387424 52.483412 
L 127.406011 52.496156 
L 129.978505 54.277519 
L 130.077694 54.349941 
L 132.558109 56.257938 
L 135.038527 58.165932 
L 137.518954 60.073923 
L 139.999387 61.981914 
L 140.239317 62.192683 
L 142.450041 64.405575 
L 142.452643 64.408183 
L 144.660254 66.624602 
L 146.86787 68.84102 
L 146.8863 68.859722 
L 149.069631 71.099166 
L 149.126271 71.15925 
L 151.233232 73.471076 
L 153.340199 75.7829 
L 155.447173 78.094725 
L 157.554154 80.406551 
L 159.661143 82.718378 
L 161.76814 85.030207 
L 163.875144 87.342036 
L 165.982153 89.653865 
L 168.089174 91.965699 
L 170.1962 94.277532 
L 172.303234 96.589367 
L 174.410275 98.901202 
L 176.517324 101.213039 
L 178.62438 103.524877 
L 180.731444 105.836716 
L 182.838515 108.148557 
L 184.945594 110.460398 
L 187.05268 112.772241 
L 189.159773 115.084085 
L 191.261182 117.389685 
L 193.288727 119.58371 
L 195.407417 121.434907 
L 197.825955 122.978707 
L 200.49346 124.491101 
L 200.522508 124.507833 
L 203.224418 126.088879 
L 203.231361 126.092958 
L 205.928111 127.682883 
L 208.624866 129.272805 
L 208.759299 129.358054 
L 211.334918 131.110988 
L 211.60938 131.327944 
L 213.919439 133.438225 
L 214.116382 133.64008 
L 216.155059 135.985219 
L 216.326476 136.206768 
L 218.09575 138.785054 
L 218.18306 138.921759 
L 219.773839 141.603958 
L 219.864881 141.772057 
L 221.245408 144.576656 
L 221.358438 144.845515 
L 222.393768 147.786132 
L 222.425886 147.883847 
L 223.33932 150.872499 
L 223.410043 151.168408 
L 223.946272 154.244511 
L 223.951005 154.272627 
L 224.451823 157.356946 
L 224.943358 160.38409 
L 225.551283 163.262183 
L 226.410539 165.958168 
L 227.621212 168.525038 
L 229.132217 171.06113 
L 230.810236 173.60682 
L 232.563647 176.170723 
L 234.328868 178.751887 
L 236.094095 181.333055 
L 237.859329 183.914226 
L 239.62457 186.4954 
L 241.389818 189.076577 
L 243.155073 191.657758 
L 244.920335 194.238942 
L 246.685603 196.820129 
L 248.450878 199.401319 
L 250.216133 201.982472 
L 251.980862 204.562633 
L 253.747989 207.141229 
L 255.515756 209.720754 
L 257.28353 212.300281 
L 259.051311 214.879812 
L 260.819099 217.459345 
L 262.586894 220.038882 
L 264.354696 222.618422 
L 266.122504 225.197966 
L 266.276259 225.454565 
L 267.716502 228.22875 
L 267.719721 228.234973 
L 269.152283 231.013729 
L 269.162335 231.033445 
L 270.569471 233.824379 
L 270.618184 233.92682 
L 271.895024 236.780124 
L 271.906533 236.806251 
L 273.149468 239.672758 
L 273.223662 239.865761 
L 274.221273 242.82775 
L 275.218888 245.789744 
L 276.216506 248.751745 
L 276.220208 248.762824 
L 277.203715 251.729524 
L 278.186607 254.697162 
L 279.169287 257.664151 
L 280.15197 260.631146 
L 281.134658 263.598148 
L 282.11735 266.565155 
L 283.100045 269.53217 
L 284.082745 272.49919 
L 285.065449 275.466217 
L 286.048157 278.43325 
L 287.030869 281.400289 
L 288.013585 284.367335 
L 288.996306 287.334386 
L 289.97903 290.301445 
L 290.961758 293.268509 
L 291.944491 296.23558 
L 292.927228 299.202657 
L 293.909968 302.169741 
L 294.892252 305.135439 
L 295.877505 308.09824 
L 296.867635 311.060977 
L 297.858348 314.025452 
L 298.849066 316.989932 
L 299.839787 319.954419 
L 300.830512 322.918913 
L 301.821242 325.883412 
L 302.811976 328.847918 
L 303.802714 331.81243 
L 304.793456 334.776949 
L 305.784202 337.741473 
L 306.774952 340.706004 
L 307.765706 343.670542 
L 308.756465 346.635085 
L 309.747227 349.599635 
L 310.737994 352.564191 
L 311.728765 355.528754 
L 312.71954 358.493323 
L 313.710319 361.457898 
L 314.701102 364.422479 
L 315.691889 367.387066 
L 316.682681 370.35166 
L 317.673476 373.31626 
L 318.664276 376.280867 
L 319.655079 379.24548 
L 320.645887 382.210099 
L 321.636699 385.174724 
L 322.627515 388.139355 
L 323.618336 391.103993 
L 324.60916 394.068638 
L 324.615215 394.086994 
L 325.582647 397.059303 
L 325.583987 397.063434 
L 326.546166 400.03747 
L 327.508348 403.011511 
L 328.470534 405.985558 
L 329.432724 408.959612 
L 330.394918 411.933672 
L 331.357115 414.907739 
L 331.435492 415.217593 
L 332.00109 418.280635 
L 332.033861 418.527901 
L 332.041368 418.777216 
L 331.977075 421.878164 
L 331.964345 422.082049 
L 331.934705 422.284169 
L 331.888361 422.483125 
L 331.070258 425.43362 
L 330.986412 425.683172 
L 330.876322 425.922309 
L 330.741253 426.14828 
L 329.003303 428.730526 
L 328.836291 428.950795 
L 328.645571 429.150888 
L 326.361776 431.291465 
L 326.176123 431.44893 
L 325.975786 431.58723 
L 323.443456 433.155888 
L 321.389433 434.794474 
L 319.93801 436.777361 
L 319.004575 439.148884 
L 318.555402 441.614452 
L 318.804105 444.183794 
L 319.557079 447.009228 
L 320.361986 450.029528 
L 321.166896 453.049835 
L 321.97181 456.070149 
L 322.776727 459.090469 
L 323.581648 462.110797 
L 324.386572 465.131131 
L 324.442551 465.401477 
L 324.899703 468.469629 
L 324.921617 468.676543 
L 324.925927 468.884571 
L 324.858367 472.000289 
L 324.84603 472.198533 
L 324.817703 472.39513 
L 324.247121 475.468398 
L 324.192676 475.699002 
L 324.116248 475.923282 
L 324.018552 476.139147 
L 323.900497 476.344587 
L 322.213096 478.978024 
L 322.035485 479.221007 
L 320.056195 481.606754 
L 319.924858 481.752757 
L 319.782269 481.887794 
L 317.425498 483.947296 
L 317.283107 484.062642 
L 314.778189 485.941378 
L 312.273259 487.820115 
L 309.768322 489.698849 
L 307.263378 491.577581 
L 304.758427 493.456309 
L 302.253469 495.335036 
L 299.748504 497.213759 
L 297.243532 499.09248 
L 294.738552 500.971198 
L 292.233566 502.849914 
L 289.728572 504.728627 
L 287.223571 506.607338 
L 284.718563 508.486045 
L 282.213548 510.364751 
L 279.708526 512.243453 
L 277.203497 514.122153 
L 274.698461 516.000851 
L 272.193417 517.879546 
L 269.688367 519.758238 
L 267.183309 521.636927 
L 264.678244 523.515614 
L 262.173173 525.394298 
L 262.068073 525.468889 
L 259.478067 527.20664 
L 259.316975 527.305939 
L 259.148711 527.392532 
L 256.309997 528.717607 
L 256.108169 528.801093 
L 255.899719 528.866308 
L 255.686297 528.912733 
L 255.469592 528.940003 
L 252.35213 529.192049 
L 252.141865 529.2 
L 251.931692 529.189914 
L 251.723155 529.161864 
L 248.664101 528.616011 
L 248.388713 528.550285 
L 248.122725 528.453283 
L 245.288632 527.230242 
L 245.103173 527.140802 
L 244.925862 527.036133 
L 244.757948 526.916972 
L 242.308043 525.018995 
L 242.137322 524.873792 
L 241.980557 524.713622 
L 241.839056 524.53982 
L 239.976843 522.026335 
L 239.838962 521.819019 
L 239.722792 521.598802 
L 239.629529 521.367949 
L 238.610881 518.4248 
L 238.543667 518.194856 
L 238.499189 517.959455 
L 238.070928 514.874098 
L 238.049652 514.636508 
L 238.051538 514.397975 
L 238.07657 514.160752 
L 238.547352 511.12277 
L 238.610198 510.833658 
L 238.707374 510.554207 
L 239.903952 507.68382 
L 239.99911 507.481925 
L 240.112215 507.289509 
L 241.799521 504.696583 
L 241.929725 504.515124 
L 242.075883 504.346252 
L 242.236787 504.191365 
L 244.588642 502.125129 
L 244.838198 501.932798 
L 247.436166 500.184309 
L 250.035237 498.436132 
L 252.633728 496.688338 
L 255.232212 494.94054 
L 257.830689 493.192739 
L 260.429159 491.444935 
L 263.027623 489.697127 
L 265.62608 487.949316 
L 268.137271 486.260195 
L 270.306067 484.514391 
L 271.98316 482.577994 
L 273.014018 480.389659 
L 273.37107 477.966109 
L 273.093489 475.382955 
L 272.328313 472.709526 
L 271.24045 469.897314 
L 270.112563 466.981628 
L 268.98468 464.065948 
L 267.856802 461.150274 
L 266.728928 458.234605 
L 265.601059 455.318943 
L 264.473195 452.403286 
L 263.345336 449.487636 
L 262.217481 446.571991 
L 262.210174 446.552864 
L 261.107005 443.628779 
L 261.053977 443.472505 
L 260.149625 440.48037 
L 259.245276 437.488239 
L 258.340931 434.496116 
L 257.43659 431.503999 
L 257.399469 431.366993 
L 256.66978 428.32835 
L 256.666345 428.313851 
L 255.954998 425.270329 
L 255.243654 422.226813 
L 254.532313 419.183304 
L 253.820975 416.139801 
L 253.10964 413.096306 
L 252.398307 410.052818 
L 251.686978 407.009336 
L 250.975651 403.965862 
L 250.264327 400.922394 
L 249.553006 397.878934 
L 248.841688 394.83548 
L 248.840064 394.828483 
L 248.137684 391.78308 
L 248.12552 391.727396 
L 247.494036 388.666476 
L 246.862555 385.605562 
L 246.231076 382.544655 
L 245.5996 379.483755 
L 244.968126 376.422863 
L 244.336655 373.361977 
L 243.714451 370.346006 
L 243.017268 367.506984 
L 242.008709 364.887274 
L 240.728649 362.462615 
L 239.016024 360.324642 
L 236.937372 358.312909 
L 234.781097 356.462497 
L 232.386736 355.029901 
L 229.781033 353.828535 
L 227.183098 352.914532 
L 224.392384 352.56511 
L 221.390913 352.327077 
L 218.322064 352.243096 
L 215.189671 352.157369 
L 212.057278 352.071634 
L 209.037893 351.988984 
L 206.141961 352.176563 
L 203.275932 352.612726 
L 200.451912 353.350625 
L 197.670459 354.264067 
L 194.956436 355.485166 
L 192.345301 356.72081 
L 190.02565 358.379489 
L 187.728919 360.18819 
L 185.614391 362.296445 
L 183.590656 364.314762 
L 182.069407 366.706126 
L 180.517297 369.246915 
L 179.221064 371.954443 
L 177.908794 374.69546 
L 176.812769 377.48136 
L 175.779749 380.388576 
L 174.732995 383.334435 
L 173.686235 386.280299 
L 172.639471 389.226168 
L 171.592701 392.172043 
L 170.545927 395.117924 
L 169.499147 398.06381 
L 168.452362 401.009701 
L 167.405572 403.955598 
L 166.358777 406.901501 
L 165.311976 409.847409 
L 164.26421 412.793645 
L 164.263152 412.796615 
L 163.211809 415.740927 
L 162.160459 418.685246 
L 161.109105 421.629571 
L 160.057745 424.573901 
L 159.00638 427.518236 
L 157.95501 430.462577 
L 156.903635 433.406924 
L 155.852255 436.351276 
L 154.800869 439.295633 
L 153.749479 442.239996 
L 153.746804 442.247449 
L 152.686119 445.187855 
L 152.568844 445.460185 
L 151.160708 448.252504 
L 151.105903 448.355064 
L 149.574414 451.064613 
L 149.439131 451.277602 
L 149.282697 451.475578 
L 147.218935 453.827942 
L 147.05238 454.000068 
L 146.869843 454.155141 
L 144.411977 456.044721 
L 144.20931 456.184925 
L 141.547585 457.83512 
L 141.289552 457.97448 
L 141.01674 458.082072 
L 138.038971 459.05527 
L 137.75693 459.129228 
L 134.706565 459.738101 
L 134.515264 459.768493 
L 134.322162 459.783704 
L 131.201618 459.905924 
L 130.94561 459.902587 
L 130.691342 459.872601 
L 127.602809 459.343813 
L 127.400913 459.300433 
L 127.203377 459.240236 
L 124.261428 458.206575 
L 123.983211 458.089132 
L 121.185306 456.699462 
L 121.028246 456.614189 
L 118.36963 455.042799 
L 115.812167 453.649752 
L 113.274751 452.690355 
L 110.586354 452.263007 
L 107.855657 452.161756 
L 105.175536 452.563601 
L 102.55069 453.396489 
L 100.135636 454.55915 
L 98.085504 456.115871 
L 96.392314 458.251287 
L 94.676606 460.735964 
L 93.007482 463.27039 
L 91.463526 465.91428 
L 89.886236 468.615242 
L 88.30894 471.316207 
L 86.731637 474.017176 
L 85.154327 476.718148 
L 83.57701 479.419123 
L 81.999686 482.120101 
L 80.422356 484.821082 
L 78.845019 487.522067 
L 77.267675 490.223055 
L 75.690324 492.924046 
L 74.112966 495.625041 
L 72.535602 498.326039 
L 70.95823 501.02704 
L 70.793393 501.273739 
L 70.599993 501.498747 
L 68.424409 503.740259 
L 68.203392 503.941806 
L 67.959501 504.114973 
L 65.307235 505.764713 
L 65.120318 505.86994 
L 64.924928 505.958446 
L 64.722556 506.029555 
L 61.738066 506.933818 
L 61.455161 507.001524 
L 61.166233 507.035285 
L 58.062145 507.212505 
L 57.860241 507.215713 
L 57.658758 507.202313 
L 57.459057 507.172398 
L 54.433257 506.590973 
L 54.232944 506.543695 
L 54.037297 506.479802 
L 53.84769 506.399742 
L 51.02678 505.066644 
L 50.712662 504.888846 
L 48.108665 503.150392 
L 45.504672 501.411933 
L 42.900686 499.673472 
L 40.296708 497.935009 
L 37.692736 496.196543 
L 35.088772 494.458074 
L 35.083842 494.454774 
L 32.484112 492.710033 
L 29.884306 490.964205 
L 27.285064 489.218748 
L 27.203382 489.161454 
L 24.690044 487.321194 
L 24.460226 487.130396 
L 24.255285 486.913096 
L 22.251227 484.510734 
L 22.155173 484.387854 
L 20.308456 481.864047 
L 20.171785 481.655873 
L 18.598404 478.971759 
L 18.445218 478.662438 
L 17.260354 475.775462 
L 17.170031 475.514463 
L 16.315595 472.507723 
L 16.270622 472.322347 
L 16.24018 472.134038 
L 15.86266 469.039767 
L 15.844733 468.768714 
z
" clip-path="url(#pb7aee9b9c7)"/>
   </g>
  </g>
 </g>
 <defs>
  <clipPath id="pb7aee9b9c7">
   <rect x="0" y="0" width="347.852862" height="554.4"/>
  </clipPath>
 </defs>
</svg>
