<?xml version="1.0" encoding="utf-8" standalone="no"?>
<!DOCTYPE svg PUBLIC "-//W3C//DTD SVG 1.1//EN"
  "http://www.w3.org/Graphics/SVG/1.1/DTD/svg11.dtd">
<svg xmlns:xlink="http://www.w3.org/1999/xlink" width="344.406477pt" height="554.4pt" viewBox="0 0 344.406477 554.4" xmlns="http://www.w3.org/2000/svg" version="1.1">
 <metadata>
  <rdf:RDF xmlns:dc="http://purl.org/dc/elements/1.1/" xmlns:cc="http://creativecommons.org/ns#" xmlns:rdf="http://www.w3.org/1999/02/22-rdf-syntax-ns#">
   <cc:Work>
    <dc:type rdf:resource="http://purl.org/dc/dcmitype/StillImage"/>
    <dc:date>2026-01-24T10:00:36.206508</dc:date>
    <dc:format>image/svg+xml</dc:format>
    <dc:creator>
     <cc:Agent>
      <dc:title>Matplotlib v3.10.8, https://matplotlib.org/</dc:title>
     </cc:Agent>
    </dc:creator>
   </cc:Work>
  </rdf:RDF>
 </metadata>
 <defs>
  <style type="text/css">*{stroke-linejoin: round; stroke-linecap: butt}</style>
 </defs>
 <g id="figure_1">
  <g id="patch_1">
   <path d="M 0 554.4 
L 344.406477 554.4 
L 344.406477 0 
L 0 0 
L 0 554.4 
z
" style="fill: none"/>
  </g>
  <g id="axes_1">
   <g id="PatchCollection_1">
    <path d="M 15.65484 467.58283 
L 15.931732 464.273613 
L 16.354505 461.85406 
L 17.089798 459.362627 
L 17.760072 457.385677 
L 18.621088 454.815158 
L 19.487859 452.168738 
L 20.145786 450.108327 
L 20.941682 447.942731 
L 21.932688 445.187642 
L 23.158404 442.236046 
L 24.695773 438.959021 
L 26.786984 434.901896 
L 31.806356 426.432083 
L 35.236572 421.300201 
L 39.726376 415.719397 
L 44.732246 410.197834 
L 48.934459 405.908423 
L 53.148584 401.485015 
L 57.355728 397.166899 
L 59.888435 394.816529 
L 62.236391 392.794716 
L 64.957431 390.683745 
L 69.979905 387.267393 
L 74.377516 384.513804 
L 80.990025 380.808365 
L 86.96176 377.360353 
L 92.885832 373.877042 
L 98.488898 370.638734 
L 104.051713 367.42199 
L 111.054426 363.427322 
L 115.261259 360.794622 
L 116.745386 359.754746 
L 120.04658 357.318568 
L 122.187581 355.609224 
L 124.290141 353.780246 
L 125.521877 352.680856 
L 127.25201 350.984308 
L 129.193757 348.85305 
L 132.039169 345.400595 
L 135.3186 340.981976 
L 137.740112 337.089201 
L 139.681339 333.361552 
L 141.209864 329.867964 
L 143.700496 323.740162 
L 146.822076 315.944953 
L 149.992469 308.225909 
L 152.442447 302.052702 
L 155.668951 293.18874 
L 156.327179 290.56968 
L 156.736195 287.335124 
L 156.874684 282.584294 
L 156.553806 278.983922 
L 156.067188 276.430489 
L 155.399651 274.069682 
L 154.974617 272.74275 
L 151.436177 263.419856 
L 142.082789 240.753705 
L 136.132971 227.553351 
L 134.698667 224.089498 
L 133.051196 219.213216 
L 131.463308 214.119393 
L 130.0393 208.448733 
L 129.058545 203.384706 
L 128.048907 195.956332 
L 123.702059 164.306417 
L 122.623763 156.24883 
L 122.761338 155.478679 
L 122.956013 154.883346 
L 123.20135 154.386142 
L 123.504736 153.87982 
L 124.005404 153.208092 
L 124.52965 152.709506 
L 125.099238 152.316781 
L 125.806935 152.076578 
L 126.676356 151.883604 
L 127.413387 151.851002 
L 129.750775 152.155124 
L 133.819178 152.66757 
L 134.245241 152.704856 
L 134.461733 152.694359 
L 134.654331 152.652758 
L 135.068109 152.493632 
L 135.33795 152.374118 
L 135.796436 152.101081 
L 136.109197 151.739815 
L 136.335784 151.430113 
L 136.50107 151.06515 
L 136.674687 150.449904 
L 136.755996 149.978125 
L 136.749578 149.477652 
L 136.724607 148.982008 
L 136.6754 148.7092 
L 136.604732 148.471209 
L 136.446323 148.214786 
L 136.265947 147.986515 
L 139.26201 147.137601 
L 139.618408 147.726915 
L 139.852088 148.351987 
L 140.054671 149.019362 
L 140.118667 149.669065 
L 140.052909 150.609755 
L 139.833457 151.445262 
L 139.30223 152.537799 
L 138.605755 153.439637 
L 137.627021 154.287118 
L 136.958776 154.789464 
L 136.488285 155.113887 
L 135.84299 155.417283 
L 135.259132 155.592551 
L 134.547468 155.680791 
L 133.372783 155.641521 
L 127.904297 154.577916 
L 127.113884 154.596577 
L 126.586691 154.672745 
L 126.126359 154.926403 
L 125.887687 155.108803 
L 125.679091 155.318021 
L 125.46493 155.568865 
L 125.325944 155.836114 
L 125.206272 156.113777 
L 125.102835 156.530898 
L 125.115333 157.033446 
L 127.479854 171.419741 
L 128.938888 181.228882 
L 129.86212 188.975363 
L 130.712011 197.383803 
L 131.434754 202.569954 
L 132.545404 209.189325 
L 134.21077 215.704353 
L 136.245478 222.062241 
L 156.592116 271.519657 
L 157.123142 273.008031 
L 157.78554 274.981846 
L 158.357104 277.224879 
L 158.740572 279.469586 
L 158.965716 283.501996 
L 158.73388 288.286031 
L 158.406011 291.148221 
L 157.761536 293.780879 
L 155.920999 298.861248 
L 143.492364 329.949375 
L 141.586739 334.297482 
L 139.724059 337.838524 
L 137.855025 341.031759 
L 135.756972 344.203124 
L 133.710026 346.919061 
L 131.243572 349.858611 
L 128.410857 352.944398 
L 125.209722 355.953009 
L 121.792212 358.86524 
L 118.93157 360.993797 
L 115.211731 363.53473 
L 107.687629 368.067697 
L 99.04314 373.014902 
L 85.231083 380.976816 
L 75.755216 386.305303 
L 69.717716 390.124769 
L 65.203135 393.456393 
L 61.054157 396.882987 
L 58.234995 399.490668 
L 53.071493 404.810613 
L 40.442146 418.185145 
L 38.012975 421.085972 
L 35.050798 425.0314 
L 32.886224 428.392422 
L 28.462842 436.157173 
L 26.515076 439.887635 
L 24.828125 443.51158 
L 19.633671 458.115494 
L 18.818633 460.605877 
L 18.101349 463.47718 
L 17.805647 466.305114 
L 17.856281 469.19861 
L 18.058021 471.824328 
L 18.534401 474.03242 
L 19.275158 476.539835 
L 20.670715 479.581667 
L 22.077033 481.685797 
L 23.396059 483.315895 
L 25.015555 485.047711 
L 25.662393 485.606726 
L 26.33523 486.121523 
L 27.644258 487.08182 
L 42.930324 496.977286 
L 51.275221 502.425557 
L 52.704292 503.208476 
L 53.423119 503.531429 
L 54.702614 503.982473 
L 55.233497 504.144211 
L 56.542544 504.374892 
L 57.772335 504.428594 
L 58.787508 504.353734 
L 59.90316 504.223586 
L 60.94124 503.981243 
L 61.739963 503.626311 
L 63.121664 503.024848 
L 64.326081 502.257614 
L 65.317231 501.45 
L 66.178321 500.494248 
L 66.895755 499.544918 
L 89.844962 460.055038 
L 91.067341 458.036631 
L 92.925742 455.649377 
L 94.337103 454.201521 
L 95.856483 453.014586 
L 97.63509 451.834452 
L 99.537142 450.902106 
L 101.410075 450.258603 
L 104.031629 449.60097 
L 106.854569 449.32693 
L 109.121505 449.389271 
L 111.063317 449.663026 
L 113.065285 450.181795 
L 114.544062 450.651217 
L 116.671837 451.642013 
L 118.4267 452.577469 
L 120.682073 453.947513 
L 123.196865 455.222712 
L 124.976029 456.045853 
L 126.506306 456.497789 
L 128.364248 456.853728 
L 130.697777 457.074769 
L 133.387094 456.934274 
L 135.234636 456.612386 
L 136.762036 456.154331 
L 138.38935 455.563882 
L 139.837426 454.828949 
L 141.345016 453.892935 
L 142.586492 452.917327 
L 143.792012 451.843159 
L 144.799372 450.776084 
L 145.730298 449.598098 
L 146.522451 448.307137 
L 147.289794 446.973399 
L 147.75877 445.846114 
L 169.784198 381.854891 
L 171.410822 377.203126 
L 172.092732 375.600309 
L 173.199755 372.750353 
L 174.766187 369.308601 
L 176.436904 366.528202 
L 177.8944 364.312998 
L 179.644158 362.265434 
L 181.998377 359.67997 
L 184.610102 357.53754 
L 186.853296 356.064445 
L 189.05514 354.68584 
L 191.155632 353.662677 
L 193.581736 352.508513 
L 195.760845 351.622226 
L 198.276017 350.863252 
L 200.706209 350.319155 
L 202.255234 350.043953 
L 204.451403 349.771684 
L 206.905868 349.694731 
L 216.181888 349.847808 
L 222.278374 350.215281 
L 225.867916 350.798269 
L 228.610469 351.711172 
L 230.952531 352.751798 
L 232.790809 353.777835 
L 234.440252 354.962776 
L 235.79467 355.988855 
L 238.211531 358.368439 
L 239.346567 359.762725 
L 241.038017 362.287151 
L 242.00779 364.081569 
L 242.840553 365.744698 
L 243.608255 367.9788 
L 244.224222 370.816396 
L 251.665905 404.329647 
L 260.151278 437.746393 
L 262.929282 446.239258 
L 273.778576 475.566669 
L 274.040144 476.770857 
L 274.11718 478.026436 
L 274.204609 479.467676 
L 273.91697 481.115365 
L 273.702162 482.361588 
L 273.092641 484.102692 
L 272.562144 485.205942 
L 271.867606 486.299011 
L 270.931181 487.463451 
L 269.901549 488.660335 
L 269.126215 489.360893 
L 243.27393 507.154218 
L 241.998965 508.39062 
L 241.037769 509.681663 
L 240.253479 511.098869 
L 239.602874 512.851061 
L 239.291033 514.603764 
L 239.133014 516.443224 
L 239.428657 519.021921 
L 239.998476 520.730593 
L 241.157436 522.343034 
L 242.451007 523.811402 
L 244.168433 525.209963 
L 245.649664 525.970512 
L 247.090609 526.485109 
L 248.614094 526.810089 
L 249.752414 526.866248 
L 251.286993 526.817074 
L 252.533823 526.538167 
L 253.616961 526.27728 
L 254.857683 525.795345 
L 256.060631 525.127126 
L 263.0349 520.139478 
L 310.069865 484.482738 
L 315.324714 480.251277 
L 316.773209 478.53151 
L 317.700287 477.053408 
L 318.231992 475.652365 
L 318.674249 474.014245 
L 319.043456 471.866781 
L 318.998339 470.556467 
L 318.873743 469.012775 
L 314.969135 453.135937 
L 313.416325 446.603352 
L 313.077263 444.186321 
L 313.103041 442.11224 
L 313.295323 440.537032 
L 313.554827 439.344955 
L 314.084213 437.668133 
L 314.614848 436.370566 
L 315.276588 435.260117 
L 316.08905 434.092658 
L 317.00224 433.134283 
L 318.097598 432.215948 
L 320.130936 430.882208 
L 321.74393 429.939399 
L 323.00486 428.830805 
L 323.896551 427.706456 
L 324.839766 426.215532 
L 325.324889 425.116209 
L 325.840874 423.590912 
L 326.16881 422.171711 
L 326.189357 420.818995 
L 326.017439 419.344002 
L 325.912561 418.472658 
L 285.774607 299.547825 
L 273.858717 262.804298 
L 267.350823 244.606385 
L 266.295411 241.510119 
L 264.551452 237.467238 
L 263.086616 234.251746 
L 261.562319 231.565771 
L 259.052053 227.285346 
L 229.46751 183.520761 
L 224.300439 175.510714 
L 222.647482 172.796396 
L 221.676441 170.812404 
L 220.692317 168.233887 
L 220.176251 166.283188 
L 219.093029 160.276298 
L 217.659413 152.82307 
L 216.534171 149.567157 
L 215.478208 147.003509 
L 214.29841 144.527098 
L 213.003935 142.190396 
L 212.174966 140.79179 
L 210.526686 138.642397 
L 209.005251 137.04503 
L 207.357947 135.529955 
L 205.458749 134.214127 
L 196.838616 129.12585 
L 193.994926 127.599177 
L 191.066327 125.670354 
L 189.661798 124.634847 
L 188.533072 123.568718 
L 185.660995 120.464559 
L 176.058508 110.14195 
L 164.365322 97.748117 
L 157.77165 90.443968 
L 151.964839 84.019045 
L 144.734822 75.983656 
L 141.272596 72.266447 
L 136.790807 67.898416 
L 131.65762 63.670849 
L 122.994215 57.266224 
L 117.206007 53.29237 
L 110.302875 49.139268 
L 105.569647 46.522459 
L 100.289847 43.885492 
L 89.371285 39.065885 
L 71.643785 32.122222 
L 69.152872 31.173748 
L 68.735273 31.102824 
L 68.248091 31.131321 
L 68.034725 31.212804 
L 67.840731 31.340161 
L 67.605981 31.529978 
L 67.440104 31.760776 
L 67.318229 31.966331 
L 67.201364 32.224162 
L 67.126722 32.508188 
L 67.084929 32.771364 
L 67.1 32.994371 
L 67.155057 33.185754 
L 87.399498 66.325856 
L 107.984324 99.140275 
L 115.801924 111.334179 
L 124.211965 123.698997 
L 139.263857 147.136513 
L 136.265947 147.986515 
L 135.575535 147.215418 
L 133.782114 145.346466 
L 132.736959 143.910604 
L 62.794931 31.135707 
L 62.69976 30.924252 
L 62.657589 30.722342 
L 62.601315 30.333947 
L 62.581119 29.915188 
L 62.60369 29.502283 
L 62.67695 29.116331 
L 62.941527 28.372633 
L 63.19546 27.890321 
L 63.431595 27.441008 
L 63.796703 26.943665 
L 64.265628 26.328907 
L 64.676342 26.03268 
L 65.442845 25.485492 
L 65.822444 25.324842 
L 66.236618 25.2 
L 66.593811 25.218798 
L 66.98558 25.273403 
L 68.489894 25.878739 
L 70.330322 26.624293 
L 99.507984 40.206781 
L 103.527875 42.197349 
L 111.993819 46.780397 
L 116.824185 49.752037 
L 121.109768 52.788742 
L 126.865213 57.039192 
L 133.114125 61.79361 
L 139.318536 67.052742 
L 144.915377 72.7749 
L 153.356621 82.047613 
L 159.826653 89.436983 
L 166.612277 96.60734 
L 174.294004 104.813253 
L 181.53317 112.61514 
L 189.946818 121.78427 
L 191.020644 122.884486 
L 191.934755 123.691016 
L 192.887881 124.379696 
L 193.948411 125.020469 
L 196.456567 126.370816 
L 198.455516 127.519103 
L 200.533781 128.720025 
L 203.317153 130.349504 
L 206.166253 132.063394 
L 207.459845 132.919361 
L 208.805719 133.835408 
L 209.805034 134.721029 
L 211.648246 136.577231 
L 212.947756 138.203915 
L 213.800654 139.26404 
L 214.634329 140.59289 
L 215.693813 142.453011 
L 216.804773 144.664581 
L 217.67753 146.53218 
L 218.453176 148.777198 
L 219.026666 150.644345 
L 219.804583 153.583217 
L 220.407007 156.796166 
L 220.875865 159.475787 
L 221.369822 162.782446 
L 221.707156 164.668254 
L 222.201464 166.737555 
L 222.660769 168.243873 
L 223.241279 169.663105 
L 223.986612 171.150351 
L 226.214716 175.044016 
L 229.49092 180.116411 
L 260.450499 225.676242 
L 264.47636 232.319326 
L 266.425006 236.607162 
L 268.608371 241.611205 
L 271.9578 250.438232 
L 276.941612 264.499569 
L 284.363135 288.334161 
L 296.537846 323.62303 
L 316.697649 382.108697 
L 328.359078 418.204595 
L 328.635563 419.208372 
L 328.739321 420.889611 
L 328.751637 422.556395 
L 328.507775 424.179086 
L 328.198811 425.250639 
L 327.644605 426.54491 
L 326.77067 427.987326 
L 325.793049 429.32564 
L 324.762322 430.467607 
L 323.371972 431.650196 
L 321.617978 432.577575 
L 320.0007 433.429964 
L 318.823294 434.298138 
L 317.955136 435.208044 
L 317.025447 436.403602 
L 316.273358 437.493411 
L 315.612272 439.233324 
L 315.24868 441.038033 
L 315.08377 442.361672 
L 315.129507 444.462229 
L 315.79816 447.708828 
L 316.60215 450.493253 
L 317.864588 455.758191 
L 319.186389 461.224351 
L 320.998257 468.594006 
L 321.204171 469.442833 
L 321.227883 470.259981 
L 321.211239 471.424477 
L 321.160644 472.19337 
L 321.006709 473.543811 
L 320.707871 475.065527 
L 320.093069 476.815556 
L 319.10053 479.127687 
L 317.238965 481.540516 
L 316.067857 482.712723 
L 257.147784 527.167474 
L 256.112842 527.806442 
L 255.091358 528.280206 
L 254.089768 528.613128 
L 252.931665 528.863194 
L 251.684086 529.110475 
L 250.399966 529.194419 
L 249.133615 529.2 
L 247.869806 529.043077 
L 246.582525 528.751759 
L 245.37293 528.367107 
L 243.414082 527.384062 
L 242.243543 526.61891 
L 241.305685 525.790311 
L 239.675845 524.083534 
L 238.813895 522.891007 
L 238.215329 521.72403 
L 237.621152 520.199257 
L 237.332935 519.10106 
L 237.185251 518.123551 
L 237.139107 516.970557 
L 237.181864 515.552363 
L 237.226819 514.189098 
L 237.493924 512.951394 
L 237.893629 511.636207 
L 238.377508 510.389829 
L 239.21988 508.606952 
L 240.099377 507.299632 
L 241.510716 505.785683 
L 243.611632 504.240823 
L 247.99398 501.124468 
L 262.407281 491.200984 
L 263.958771 490.144748 
L 267.132483 487.940221 
L 267.995448 487.263576 
L 268.898411 486.456948 
L 269.758066 485.397952 
L 270.52567 484.234257 
L 271.13564 483.104177 
L 271.597182 481.665817 
L 271.829672 480.659294 
L 272.006142 479.31171 
L 271.970597 478.11985 
L 271.835102 476.872439 
L 271.62215 475.946071 
L 271.214602 474.654416 
L 270.59112 472.915521 
L 268.333831 466.866936 
L 265.714824 459.755188 
L 263.382296 453.133309 
L 259.337309 441.667161 
L 257.172196 434.327318 
L 255.346004 427.388707 
L 252.525462 416.164331 
L 249.192328 403.29823 
L 245.477762 386.565312 
L 242.300934 371.39646 
L 241.823432 369.47826 
L 241.003255 367.106977 
L 239.771721 364.611067 
L 237.995315 361.84348 
L 235.782752 359.245786 
L 234.167146 357.695642 
L 232.641665 356.477321 
L 231.489801 355.701862 
L 228.95225 354.287279 
L 226.339355 353.320261 
L 224.140487 352.821888 
L 216.408914 352.293485 
L 205.153236 351.925641 
L 203.321986 352.051944 
L 200.539068 352.567848 
L 197.637558 353.38125 
L 193.744931 354.741833 
L 191.474984 355.844252 
L 189.522935 357.009335 
L 187.718647 358.154887 
L 185.437065 359.757736 
L 183.35929 361.570066 
L 181.329002 363.766425 
L 179.312428 366.229464 
L 177.929766 368.342832 
L 176.624699 370.41566 
L 176.188973 371.168114 
L 175.66135 372.311815 
L 174.848455 374.538356 
L 173.908854 377.028733 
L 173.373461 378.29021 
L 171.937826 382.046232 
L 169.62352 388.1794 
L 166.91134 395.674963 
L 154.712441 433.009551 
L 150.900538 443.975584 
L 150.312467 445.548009 
L 149.861189 446.533127 
L 149.393252 447.492718 
L 148.846863 448.451197 
L 148.283815 449.384148 
L 146.956669 451.297584 
L 145.446424 453.014541 
L 144.0017 454.343175 
L 142.756422 455.32795 
L 141.582509 456.060792 
L 139.958237 456.934927 
L 138.239415 457.651762 
L 136.493368 458.193533 
L 134.884044 458.602046 
L 133.220887 458.857979 
L 131.825552 458.836611 
L 130.316553 458.871181 
L 129.117785 458.799365 
L 127.735207 458.66685 
L 125.995727 458.283308 
L 124.088825 457.710106 
L 122.94729 457.273784 
L 121.309124 456.481808 
L 118.105682 454.651076 
L 116.76782 453.904508 
L 115.812134 453.425565 
L 114.806279 452.925227 
L 113.935276 452.551681 
L 112.903416 452.225772 
L 111.653965 451.895623 
L 110.312021 451.572712 
L 108.78176 451.418581 
L 107.121506 451.390934 
L 104.747222 451.58464 
L 102.455214 452.04641 
L 100.820107 452.630398 
L 99.050191 453.543075 
L 97.20212 454.728866 
L 95.503828 456.088076 
L 94.413852 457.208146 
L 93.808725 457.92411 
L 93.220408 458.727281 
L 92.755899 459.508747 
L 88.351728 467.189055 
L 76.77642 487.000119 
L 69.250456 500.143936 
L 68.86643 500.792344 
L 68.28746 501.531091 
L 67.571379 502.318662 
L 66.708378 503.222605 
L 65.842493 503.935368 
L 64.789491 504.615499 
L 63.387075 505.355589 
L 61.810554 505.963947 
L 60.606811 506.225471 
L 59.451157 506.418654 
L 58.19007 506.491045 
L 56.790576 506.521886 
L 55.448476 506.371227 
L 54.324796 506.08927 
L 53.24857 505.758903 
L 52.291293 505.362638 
L 50.931405 504.646069 
L 25.753717 488.477356 
L 24.196444 487.278421 
L 22.405336 485.625575 
L 20.950783 484.023557 
L 19.264148 481.654394 
L 17.832485 478.910355 
L 16.745614 475.8389 
L 16.050632 473.051406 
L 15.714223 470.309763 
z
" clip-path="url(#p7d25c6d1b5)"/>
   </g>
  </g>
 </g>
 <defs>
  <clipPath id="p7d25c6d1b5">
   <rect x="0" y="0" width="344.406477" height="554.4"/>
  </clipPath>
 </defs>
</svg>
