<?xml version="1.0" encoding="utf-8" standalone="no"?>
<!DOCTYPE svg PUBLIC "-//W3C//DTD SVG 1.1//EN"
  "http://www.w3.org/Graphics/SVG/1.1/DTD/svg11.dtd">
<svg xmlns:xlink="http://www.w3.org/1999/xlink" width="347.931831pt" height="554.4pt" viewBox="0 0 347.931831 554.4" xmlns="http://www.w3.org/2000/svg" version="1.1">
 <metadata>
  <rdf:RDF xmlns:dc="http://purl.org/dc/elements/1.1/" xmlns:cc="http://creativecommons.org/ns#" xmlns:rdf="http://www.w3.org/1999/02/22-rdf-syntax-ns#">
   <cc:Work>
    <dc:type rdf:resource="http://purl.org/dc/dcmitype/StillImage"/>
    <dc:date>2026-01-24T11:29:23.921520</dc:date>
    <dc:format>image/svg+xml</dc:format>
    <dc:creator>
     <cc:Agent>
      <dc:title>Matplotlib v3.10.8, https://matplotlib.org/</dc:title>
     </cc:Agent>
    </dc:creator>
   </cc:Work>
  </rdf:RDF>
 </metadata>
 <defs>
  <style type="text/css">*{stroke-linejoin: round; stroke-linecap: butt}</style>
 </defs>
 <g id="figure_1">
  <g id="patch_1">
   <path d="M 0 554.4 
L 347.931831 554.4 
L 347.931831 0 
L 0 0 
L 0 554.4 
z
" style="fill: none"/>
  </g>
  <g id="axes_1">
   <g id="PatchCollection_1">
    <path d="M 15.815083 466.929631 
L 15.826136 466.705862 
L 16.330507 461.414813 
L 16.370206 461.151113 
L 16.438297 460.893281 
L 17.913614 456.328232 
L 17.917518 456.316258 
L 19.844319 450.457174 
L 22.697698 441.584314 
L 22.765417 441.399526 
L 22.847732 441.220762 
L 28.00915 431.101259 
L 28.136948 430.87999 
L 33.88929 422.0205 
L 34.052386 421.797825 
L 42.903781 411.039534 
L 43.018516 410.909712 
L 57.884001 395.241343 
L 58.080922 395.055499 
L 66.87307 387.631288 
L 67.138499 387.436115 
L 74.691778 382.628478 
L 74.79123 382.568438 
L 113.676973 360.331881 
L 119.113739 356.627837 
L 124.228538 352.310911 
L 128.907002 347.550444 
L 132.887973 342.395621 
L 136.556673 337.038378 
L 141.410734 327.187736 
L 145.332177 317.583206 
L 154.310048 295.298814 
L 155.7777 290.716916 
L 156.554557 285.937337 
L 156.493624 279.958332 
L 155.340923 274.701389 
L 148.967045 260.10527 
L 148.963299 260.096646 
L 141.90966 243.773555 
L 141.899649 243.750053 
L 133.340769 223.363144 
L 133.252295 223.116156 
L 130.977279 215.505404 
L 130.94444 215.384347 
L 128.733603 206.323554 
L 128.700148 206.163436 
L 127.229441 197.728531 
L 127.217391 197.652364 
L 126.198412 190.483018 
L 126.188249 190.401818 
L 122.594354 157.198887 
L 122.580708 156.98912 
L 122.585074 156.778955 
L 122.607418 156.569936 
L 122.938181 154.371855 
L 122.989487 154.120827 
L 123.0667 153.87652 
L 123.168976 153.641601 
L 123.295199 153.418631 
L 123.443992 153.210046 
L 124.722702 151.60224 
L 124.888143 151.414702 
L 125.071819 151.244984 
L 125.271822 151.09485 
L 125.486073 150.965862 
L 125.712344 150.859359 
L 125.948283 150.77645 
L 127.982324 150.176275 
L 128.21701 150.11942 
L 128.456149 150.085917 
L 128.697424 150.076089 
L 128.938495 150.090033 
L 132.279696 150.448976 
L 135.467192 150.321606 
L 136.902492 149.960496 
L 137.523598 149.220263 
L 137.636651 148.526931 
L 136.870944 146.733877 
L 123.494546 126.734605 
L 123.453591 126.671287 
L 95.267062 81.589404 
L 65.452207 34.114044 
L 65.336182 33.907835 
L 65.240566 33.691407 
L 65.166246 33.466773 
L 65.113917 33.236023 
L 64.730854 31.06645 
L 64.700262 30.822072 
L 64.694331 30.575858 
L 64.71312 30.33029 
L 64.75644 30.087844 
L 64.823854 29.850965 
L 64.914683 29.62204 
L 65.02801 29.403377 
L 66.186945 27.418054 
L 66.314115 27.222244 
L 66.459328 27.039414 
L 66.621265 26.871218 
L 66.798461 26.719181 
L 66.98931 26.58468 
L 67.192083 26.468935 
L 67.404941 26.372993 
L 69.945905 25.370312 
L 70.179977 25.29132 
L 70.420808 25.236273 
L 70.665954 25.20573 
L 70.912929 25.2 
L 71.159228 25.219142 
L 71.402352 25.262962 
L 74.306792 25.939034 
L 74.538815 26.005227 
L 74.763212 26.093895 
L 84.101854 30.326172 
L 106.77561 40.0892 
L 107.004037 40.20196 
L 117.974687 46.345621 
L 118.154034 46.456441 
L 129.626551 54.245925 
L 129.744238 54.331027 
L 140.072069 62.275412 
L 140.31443 62.488639 
L 148.581262 70.788445 
L 148.656253 70.86715 
L 193.160321 119.696971 
L 195.976216 122.157347 
L 201.023996 125.019287 
L 201.059959 125.040081 
L 210.473264 130.589882 
L 210.685412 130.730272 
L 210.881878 130.89188 
L 215.063567 134.711928 
L 215.259754 134.912931 
L 215.431677 135.135044 
L 219.043274 140.398067 
L 219.221505 140.702664 
L 221.594574 145.523655 
L 221.674466 145.703901 
L 221.739623 145.889981 
L 223.40537 151.340122 
L 223.480775 151.663926 
L 225.109492 161.694478 
L 225.900096 164.984652 
L 227.126746 167.919934 
L 229.541385 171.9727 
L 251.876979 204.632197 
L 266.121657 225.41788 
L 266.278518 225.680515 
L 270.306673 233.493972 
L 270.365398 233.616045 
L 272.970769 239.438164 
L 273.056415 239.657145 
L 276.223948 249.061793 
L 276.22786 249.073505 
L 295.375641 306.885248 
L 324.709749 394.65832 
L 324.717132 394.680769 
L 331.547031 415.791483 
L 331.606134 416.007334 
L 331.645317 416.227673 
L 332.09767 419.678039 
L 332.115845 419.883171 
L 332.116748 420.089104 
L 332.100374 420.294387 
L 331.627528 424.164205 
L 331.582029 424.421678 
L 331.509382 424.672845 
L 331.410413 424.914852 
L 331.286247 425.14495 
L 329.354605 428.308549 
L 329.231444 428.491266 
L 329.092383 428.662193 
L 328.938543 428.819951 
L 326.046703 431.530444 
L 325.839294 431.704375 
L 325.613983 431.854394 
L 322.173728 433.880361 
L 320.453379 435.676103 
L 319.300572 437.767091 
L 318.415892 440.975242 
L 318.717302 444.159593 
L 324.742764 466.769191 
L 324.786628 466.96595 
L 324.814186 467.165647 
L 324.825253 467.366932 
L 324.880341 471.352134 
L 324.871746 471.593971 
L 324.839363 471.833785 
L 324.165031 475.465874 
L 324.110482 475.696806 
L 324.033875 475.921388 
L 323.935926 476.137516 
L 323.817551 476.343169 
L 321.190336 480.435895 
L 321.05997 480.619806 
L 320.91327 480.790971 
L 320.751475 480.947946 
L 317.550347 483.780052 
L 317.396733 483.905267 
L 260.268439 526.750603 
L 260.058074 526.892003 
L 259.83424 527.010939 
L 256.186402 528.713703 
L 255.978208 528.799479 
L 255.763026 528.865802 
L 255.542669 528.912113 
L 255.318993 528.938021 
L 251.613295 529.195612 
L 251.356966 529.2 
L 251.101579 529.17761 
L 250.849923 529.128687 
L 246.885001 528.140341 
L 246.61826 528.057459 
L 246.362672 527.944789 
L 246.121551 527.803792 
L 242.823849 525.61436 
L 242.651876 525.489108 
L 242.491405 525.349426 
L 242.343641 525.196363 
L 242.209696 525.031072 
L 239.812201 521.7951 
L 239.664208 521.570591 
L 239.54168 521.331231 
L 239.446088 521.079898 
L 238.3887 517.762976 
L 238.323343 517.513227 
L 238.284596 517.257992 
L 237.931527 513.667083 
L 237.919762 513.432259 
L 237.930533 513.197387 
L 237.963743 512.964626 
L 238.019085 512.736114 
L 239.017018 509.336932 
L 239.102434 509.09398 
L 239.212851 508.861323 
L 241.12956 505.316122 
L 241.241218 505.129815 
L 241.368921 504.954117 
L 241.511666 504.790405 
L 241.668334 504.639962 
L 244.567068 502.093264 
L 244.817008 501.900691 
L 269.610038 485.224253 
L 271.849689 482.754913 
L 272.947988 480.512778 
L 273.338905 477.859364 
L 272.934065 474.385896 
L 261.176163 443.99051 
L 261.115866 443.815221 
L 257.315256 431.240505 
L 257.274725 431.089096 
L 248.1808 392.180064 
L 248.167019 392.117417 
L 243.568234 369.826126 
L 242.67532 366.326064 
L 240.881943 362.75162 
L 238.563408 359.857254 
L 235.036108 356.698703 
L 231.214403 354.412096 
L 227.10194 352.965256 
L 222.696664 352.437541 
L 207.626497 352.02508 
L 202.202515 352.850523 
L 197.239218 354.480495 
L 192.227934 356.851947 
L 188.245506 359.754093 
L 183.6064 364.37943 
L 180.72924 368.902246 
L 177.516035 375.613869 
L 164.46627 412.339098 
L 164.464994 412.342679 
L 152.761149 445.119078 
L 152.641277 445.39868 
L 150.055017 450.527202 
L 149.954172 450.707806 
L 149.838469 450.87927 
L 149.708731 451.040377 
L 146.555258 454.634839 
L 146.387132 454.808425 
L 146.202741 454.964625 
L 146.003876 455.101923 
L 141.57782 457.845958 
L 141.318663 457.985828 
L 141.044612 458.093632 
L 136.549929 459.556786 
L 136.262298 459.631487 
L 135.967745 459.670856 
L 131.758237 459.975551 
L 131.461858 459.979049 
L 131.167221 459.946773 
L 126.898912 459.215994 
L 126.632746 459.155003 
L 126.375008 459.064805 
L 122.703232 457.545488 
L 122.392994 457.390592 
L 116.429288 453.865708 
L 112.920735 452.539123 
L 108.777608 452.04005 
L 104.633799 452.661354 
L 100.932554 454.013229 
L 97.899736 456.316133 
L 95.893112 459.025345 
L 93.234907 463.010581 
L 70.94943 501.171741 
L 70.835289 501.349197 
L 70.706321 501.516188 
L 70.563478 501.671477 
L 68.281682 503.947351 
L 68.130489 504.086033 
L 67.968236 504.211595 
L 67.796056 504.323159 
L 64.966704 505.992723 
L 64.765494 506.09919 
L 64.555281 506.186544 
L 64.337874 506.254034 
L 60.867354 507.157156 
L 60.645645 507.204034 
L 60.420556 507.230251 
L 60.194008 507.235583 
L 56.265221 507.146478 
L 56.041007 507.131094 
L 55.819141 507.095253 
L 55.601488 507.039256 
L 55.389873 506.963572 
L 51.931427 505.544787 
L 51.710216 505.440878 
L 51.500444 505.31547 
L 34.940097 494.259508 
L 34.934599 494.255826 
L 25.183365 487.707639 
L 24.996885 487.569166 
L 24.824338 487.413675 
L 24.667272 487.242561 
L 22.175683 484.255772 
L 22.069542 484.118998 
L 19.447377 480.481955 
L 19.312332 480.273077 
L 19.199134 480.051597 
L 17.610041 476.50993 
L 17.488515 476.1763 
L 16.291365 471.963557 
L 16.238587 471.737723 
L 16.207374 471.507913 
L 15.824494 467.153475 
z
M 20.731061 466.94766 
L 21.073872 470.84641 
L 22.158756 474.66409 
L 23.572763 477.815537 
L 25.998246 481.179776 
L 28.209571 483.830597 
L 37.666744 490.181316 
L 54.020315 501.099231 
L 56.831084 502.252314 
L 59.963098 502.323349 
L 62.769688 501.593 
L 65.036419 500.25543 
L 66.873703 498.422915 
L 89.035558 460.473441 
L 89.113111 460.349301 
L 91.845475 456.252885 
L 91.914969 456.15406 
L 94.166159 453.11465 
L 94.312903 452.93496 
L 94.475967 452.769937 
L 94.653892 452.621058 
L 98.260336 449.882585 
L 98.462249 449.744576 
L 98.676902 449.627361 
L 98.902161 449.532104 
L 103.183499 447.96835 
L 103.419344 447.895433 
L 103.661324 447.846591 
L 108.37808 447.139382 
L 108.59652 447.116572 
L 108.816125 447.113394 
L 109.035133 447.129872 
L 113.803056 447.704207 
L 114.094389 447.757306 
L 114.3772 447.845126 
L 118.362456 449.351951 
L 118.556687 449.435119 
L 118.74304 449.534693 
L 124.739514 453.078945 
L 127.997186 454.426913 
L 131.701329 455.0611 
L 135.315541 454.799494 
L 139.244529 453.520491 
L 143.108458 451.124959 
L 145.815237 448.039658 
L 148.192372 443.325827 
L 159.844328 410.694743 
L 172.936649 373.849751 
L 173.035546 373.611845 
L 176.368118 366.650892 
L 176.510914 366.39352 
L 179.612823 361.517405 
L 179.770101 361.297867 
L 179.95056 361.09695 
L 184.915939 356.146307 
L 185.054836 356.018107 
L 185.203193 355.900982 
L 189.525369 352.751249 
L 189.717556 352.624559 
L 189.920773 352.516443 
L 195.279217 349.980708 
L 195.563099 349.867436 
L 200.866076 348.125911 
L 201.062252 348.070404 
L 201.262359 348.031381 
L 207.105286 347.142181 
L 207.322757 347.118948 
L 207.541433 347.115179 
L 222.943579 347.536726 
L 223.168219 347.55322 
L 227.953274 348.126429 
L 228.217761 348.172918 
L 228.47558 348.24804 
L 233.075709 349.86645 
L 233.303629 349.959743 
L 233.521046 350.075421 
L 237.756642 352.609667 
L 237.951727 352.739432 
L 238.133542 352.887218 
L 241.987194 356.338003 
L 242.132309 356.479161 
L 242.265288 356.631805 
L 244.872606 359.886676 
L 245.023024 360.096132 
L 245.15062 360.320222 
L 247.178957 364.362974 
L 247.284423 364.604826 
L 247.363302 364.856608 
L 248.335773 368.66852 
L 248.361307 368.77926 
L 252.965095 391.094804 
L 262.033876 429.896251 
L 265.784966 442.307127 
L 277.621985 472.90704 
L 277.688414 473.102941 
L 277.7381 473.303744 
L 277.770691 473.508019 
L 278.249113 477.612813 
L 278.264603 477.826648 
L 278.26136 478.04102 
L 278.239411 478.254289 
L 277.745617 481.606004 
L 277.695953 481.853787 
L 277.621059 482.095145 
L 277.521729 482.327517 
L 276.10256 485.224696 
L 275.991911 485.42611 
L 275.862898 485.616285 
L 275.716653 485.793552 
L 273.043408 488.740953 
L 272.831199 488.948226 
L 272.595521 489.128366 
L 247.686168 505.883047 
L 245.236114 508.035555 
L 243.651251 510.966964 
L 242.860324 513.661036 
L 243.141423 516.519966 
L 243.996387 519.201904 
L 245.895501 521.765197 
L 248.482323 523.482657 
L 251.660086 524.274786 
L 254.524268 524.075691 
L 257.528631 522.673293 
L 314.373992 480.040152 
L 317.245881 477.499331 
L 319.429481 474.097677 
L 319.971717 471.177087 
L 319.924188 467.738721 
L 313.924441 445.225617 
L 313.880218 445.026855 
L 313.852632 444.825111 
L 313.489514 440.988811 
L 313.478615 440.766284 
L 313.487951 440.543686 
L 313.517447 440.322854 
L 313.566859 440.105608 
L 314.648256 436.184093 
L 314.740903 435.911631 
L 314.864823 435.651896 
L 316.312184 433.026639 
L 316.4228 432.845084 
L 316.548721 432.673789 
L 316.689003 432.514042 
L 318.865753 430.241897 
L 319.028282 430.08709 
L 319.204282 429.947789 
L 319.392279 429.82516 
L 322.890271 427.76519 
L 325.341001 425.468147 
L 326.822442 423.041877 
L 327.193178 420.007735 
L 326.810388 417.087964 
L 320.053231 396.202089 
L 290.721819 308.437087 
L 290.719732 308.430811 
L 271.572852 250.62179 
L 268.444859 241.334538 
L 265.915241 235.681702 
L 261.988361 228.064688 
L 247.828309 207.402489 
L 225.448756 174.678714 
L 225.366214 174.549534 
L 222.823359 170.281569 
L 222.667375 169.971877 
L 221.297873 166.694758 
L 221.229522 166.51085 
L 221.176089 166.322066 
L 220.318075 162.751363 
L 220.281896 162.571407 
L 218.665164 152.614663 
L 217.105884 147.51287 
L 214.898229 143.027923 
L 211.546441 138.143509 
L 207.761737 134.686113 
L 198.586357 129.276585 
L 193.340033 126.302077 
L 193.130712 126.168981 
L 192.935905 126.015424 
L 189.827473 123.299445 
L 189.628506 123.104606 
L 145.067117 74.211892 
L 136.952803 66.065212 
L 126.810765 58.263744 
L 115.485642 50.574336 
L 104.718331 44.544546 
L 82.140408 34.822783 
L 82.097962 34.804029 
L 72.958752 30.662134 
L 71.035127 30.214368 
L 69.995545 30.624594 
L 69.718307 31.099518 
L 69.861581 31.910987 
L 99.422794 78.982463 
L 99.425392 78.986608 
L 127.593227 124.038592 
L 141.075787 144.19659 
L 141.193564 144.391727 
L 141.292719 144.596954 
L 142.427966 147.255359 
L 142.50858 147.471824 
L 142.568473 147.694913 
L 142.607116 147.922646 
L 142.624166 148.153004 
L 142.619471 148.383944 
L 142.593073 148.613419 
L 142.256889 150.675168 
L 142.200694 150.932151 
L 142.117302 151.181639 
L 142.007672 151.420761 
L 141.873065 151.646768 
L 141.715029 151.85706 
L 140.150123 153.722115 
L 139.975646 153.909291 
L 139.782619 154.077272 
L 139.573143 154.22423 
L 139.349497 154.348565 
L 139.114114 154.448924 
L 138.869557 154.524215 
L 136.417606 155.141106 
L 136.169204 155.190127 
L 135.917072 155.21328 
L 132.295155 155.358009 
L 131.935216 155.345932 
L 128.90118 155.019988 
L 128.079851 155.262333 
L 127.691712 155.750366 
L 127.505732 156.986292 
L 131.061094 189.833218 
L 132.068889 196.923871 
L 133.518916 205.24017 
L 135.695483 214.160513 
L 137.914908 221.585292 
L 146.417993 241.839299 
L 153.4647 258.14635 
L 159.933139 272.959013 
L 160.018347 273.18351 
L 160.081197 273.415263 
L 161.33973 279.154857 
L 161.381002 279.403579 
L 161.396525 279.655225 
L 161.462184 286.09796 
L 161.45533 286.307894 
L 161.43054 286.516473 
L 160.590548 291.684487 
L 160.554582 291.863435 
L 160.505409 292.039213 
L 158.95464 296.880594 
L 158.89385 297.048964 
L 149.880379 319.421719 
L 149.876093 319.432287 
L 145.919933 329.121848 
L 145.849294 329.278872 
L 140.879712 339.363947 
L 140.703274 339.665666 
L 136.895966 345.225313 
L 136.8135 345.338648 
L 132.700288 350.664704 
L 132.508393 350.884753 
L 127.647346 355.831002 
L 127.479969 355.986164 
L 122.181302 360.458277 
L 121.980305 360.610928 
L 116.359398 364.440426 
L 116.195959 364.542612 
L 77.276925 386.798206 
L 69.911943 391.485993 
L 61.349539 398.716206 
L 46.63704 414.223327 
L 37.928541 424.807937 
L 32.321142 433.444192 
L 27.307489 443.273985 
L 24.512037 451.966715 
L 24.507049 451.982055 
L 22.579695 457.842819 
L 21.188686 462.146995 
z
" clip-path="url(#p0dd624c0e4)"/>
   </g>
  </g>
 </g>
 <defs>
  <clipPath id="p0dd624c0e4">
   <rect x="0" y="0" width="347.931831" height="554.4"/>
  </clipPath>
 </defs>
</svg>
